<?xml version="1.0" standalone="no"?>
<!DOCTYPE svg PUBLIC "-//W3C//DTD SVG 20010904//EN"
 "http://www.w3.org/TR/2001/REC-SVG-20010904/DTD/svg10.dtd">
<svg version="1.0" xmlns="http://www.w3.org/2000/svg"
 width="1639.000000pt" height="1639.000000pt" viewBox="0 0 1639.000000 1639.000000"
 preserveAspectRatio="xMidYMid meet">
<metadata>
Created by potrace 1.11, written by Peter Selinger 2001-2013
</metadata>
<g transform="translate(0.000000,1639.000000) scale(0.100000,-0.100000)"
fill="#000000" stroke="none">
<path d="M7438 15663 c7 -3 16 -2 19 1 4 3 -2 6 -13 5 -11 0 -14 -3 -6 -6z"/>
<path d="M8005 15660 c3 -5 10 -10 16 -10 5 0 9 5 9 10 0 6 -7 10 -16 10 -8 0
-12 -4 -9 -10z"/>
<path d="M7190 15632 c0 -4 -37 -6 -82 -5 -47 1 -88 -3 -95 -9 -9 -7 -13 -7
-13 0 0 28 -248 -36 -342 -88 -9 -5 -35 -13 -58 -16 -22 -4 -43 -11 -46 -15
-3 -5 -10 -7 -15 -4 -5 4 -12 -1 -15 -9 -3 -9 -16 -16 -28 -16 -11 0 -48 -16
-81 -35 -33 -19 -81 -47 -107 -61 -30 -17 -45 -31 -41 -40 4 -10 0 -12 -11 -8
-8 3 -28 -3 -43 -13 -15 -10 -41 -25 -57 -31 -22 -10 -26 -16 -18 -24 7 -7 12
-16 12 -22 0 -6 -5 -5 -12 2 -18 18 -30 15 -60 -13 -15 -14 -31 -25 -35 -25
-18 -1 -64 -51 -57 -62 4 -7 3 -8 -4 -4 -15 9 -56 -17 -135 -87 -18 -16 -45
-38 -61 -50 -59 -45 -106 -89 -101 -97 3 -4 -4 -10 -15 -13 -11 -3 -23 -13
-27 -24 -8 -21 -44 -57 -67 -66 -9 -4 -16 -15 -16 -26 0 -11 -9 -25 -20 -31
-28 -15 -26 -33 3 -24 18 6 17 2 -10 -21 -26 -23 -30 -32 -23 -51 7 -17 6 -22
-3 -18 -7 2 -28 -11 -47 -31 -24 -25 -36 -31 -42 -23 -6 10 -10 10 -20 0 -10
-10 -10 -17 0 -32 10 -16 9 -21 -7 -30 -11 -5 -26 -10 -35 -10 -8 0 -17 -6
-19 -12 -4 -10 -6 -10 -6 0 -1 17 -28 15 -35 -3 -3 -8 0 -15 6 -15 6 0 -17
-27 -50 -60 -34 -33 -62 -66 -62 -74 0 -7 -27 -38 -60 -69 -33 -30 -60 -62
-60 -71 0 -9 -7 -16 -15 -16 -8 0 -15 -4 -15 -10 0 -5 -4 -10 -10 -10 -5 0
-10 7 -10 15 0 8 7 15 15 15 8 0 15 5 15 11 0 6 -6 9 -12 7 -16 -5 -58 -86
-58 -110 0 -20 26 -25 33 -5 3 7 6 5 6 -5 1 -17 -32 -25 -79 -18 -12 1 -12 -1
-3 -11 10 -10 9 -18 -5 -41 -17 -29 -36 -39 -26 -13 4 8 1 15 -5 15 -6 0 -11
-9 -11 -20 0 -11 -4 -20 -9 -20 -5 0 -11 -9 -14 -20 -3 -13 0 -20 10 -20 12 0
11 -3 -3 -17 -13 -13 -18 -15 -22 -5 -5 16 -32 -4 -32 -24 0 -7 -17 -39 -38
-71 -22 -32 -61 -95 -88 -141 -27 -46 -57 -88 -66 -93 -10 -5 -18 -14 -18 -20
0 -6 -13 -30 -30 -54 -16 -24 -30 -50 -30 -58 0 -8 -13 -34 -30 -58 -16 -24
-30 -49 -30 -55 0 -5 -14 -31 -30 -57 -17 -26 -30 -56 -30 -66 0 -10 -11 -30
-24 -44 -18 -20 -21 -27 -10 -31 19 -7 18 -24 -3 -44 -15 -15 -16 -15 -11 -1
7 19 -6 44 -19 36 -5 -3 -18 -32 -29 -64 -10 -32 -23 -61 -28 -64 -4 -4 -5
-17 -1 -30 4 -16 3 -19 -3 -11 -6 9 -14 0 -27 -35 -10 -26 -34 -76 -52 -111
-36 -68 -45 -105 -13 -57 l20 30 0 -45 c-1 -50 -29 -106 -31 -59 -1 22 -1 22
-11 -6 -6 -16 -21 -46 -34 -66 -14 -22 -21 -45 -17 -57 3 -13 -2 -28 -11 -37
-18 -18 -22 -40 -6 -30 6 3 10 2 10 -4 0 -5 -6 -14 -14 -18 -9 -5 -16 -29 -19
-63 -3 -52 -23 -100 -39 -100 -5 0 -8 8 -9 18 0 10 -3 12 -6 4 -7 -19 -23 -4
-16 16 5 13 3 14 -6 6 -9 -8 -10 -18 -3 -30 5 -11 8 -31 6 -46 -1 -16 2 -28 7
-28 5 0 9 6 9 14 0 16 18 31 26 23 10 -9 -20 -58 -33 -53 -9 4 -13 -3 -13 -19
0 -14 -8 -29 -20 -35 -11 -6 -19 -18 -18 -28 1 -9 0 -28 -2 -42 -2 -19 -4 -15
-9 15 l-6 40 -11 -47 c-9 -38 -8 -45 3 -41 19 8 16 -30 -5 -69 -10 -18 -18
-47 -16 -64 1 -17 -2 -38 -7 -45 -5 -8 -9 -9 -9 -3 0 7 -7 15 -16 18 -9 3 -12
2 -9 -4 11 -17 16 -87 6 -71 -5 7 -14 10 -20 7 -15 -9 -14 7 1 22 9 9 9 12 0
12 -15 0 -26 -43 -18 -75 4 -14 2 -25 -3 -25 -5 0 -11 -8 -13 -18 -6 -20 9
-68 18 -59 3 3 1 14 -4 24 -7 14 -4 23 14 40 13 13 26 18 29 13 3 -6 1 -10 -5
-10 -7 0 -10 -7 -7 -14 4 -10 1 -13 -9 -9 -7 3 -14 1 -14 -5 0 -6 5 -12 11
-14 13 -4 1 -58 -12 -58 -6 0 -5 -9 1 -21 9 -16 8 -26 -4 -44 -9 -14 -16 -40
-16 -59 0 -19 -5 -36 -10 -38 -6 -2 -13 -17 -16 -33 -3 -17 -8 -31 -12 -33 -4
-1 -6 -22 -4 -47 2 -26 0 -45 -6 -45 -6 0 -8 -8 -6 -17 4 -20 -13 -47 -36 -56
-10 -4 -8 -6 8 -6 19 -1 22 -6 22 -41 0 -22 -4 -40 -9 -40 -5 0 -11 -18 -15
-40 -4 -26 -11 -40 -21 -40 -10 0 -15 -11 -16 -32 0 -28 -2 -30 -10 -13 -7 16
-8 13 -5 -15 2 -19 -2 -43 -8 -53 -8 -13 -8 -20 2 -26 16 -10 7 -75 -13 -94
-6 -7 -15 -25 -19 -42 -6 -22 -9 -26 -17 -14 -6 9 -9 10 -9 2 0 -7 -6 -13 -14
-13 -14 0 -33 -86 -22 -98 3 -3 6 1 6 9 0 8 6 5 15 -8 12 -17 13 -27 4 -50 -6
-15 -15 -37 -19 -48 -5 -11 -11 -36 -14 -55 -4 -19 -16 -55 -28 -80 -18 -37
-44 -159 -49 -230 -3 -35 -30 -124 -43 -139 -20 -23 -30 -111 -12 -111 11 0
10 -7 -3 -34 -9 -18 -19 -32 -22 -30 -9 5 -26 -63 -39 -156 -19 -145 -56 -299
-73 -311 -6 -4 -11 -29 -13 -55 -7 -99 -9 -109 -21 -117 -7 -4 -13 -23 -13
-41 0 -19 -7 -47 -15 -62 -17 -33 -20 -58 -5 -49 5 3 10 -3 10 -14 0 -13 -7
-21 -16 -21 -9 0 -14 -6 -11 -12 2 -7 12 -13 23 -13 20 0 31 -42 19 -73 -5
-14 -9 -11 -20 13 -12 26 -13 27 -14 8 -1 -12 -5 -25 -11 -28 -16 -10 -12 -38
5 -31 9 3 15 0 15 -10 0 -8 4 -13 8 -10 4 2 8 -12 7 -32 0 -29 -4 -37 -17 -36
-10 1 -18 -4 -18 -12 0 -8 -4 -14 -10 -14 -5 0 -10 5 -10 12 0 9 -3 9 -12 0
-9 -9 -7 -16 7 -32 18 -20 18 -21 -1 -36 -13 -11 -15 -17 -6 -20 13 -6 17 -46
5 -58 -4 -4 -8 -42 -9 -84 -3 -101 -16 -177 -37 -199 -9 -11 -17 -39 -18 -67
-2 -27 -9 -54 -16 -62 -7 -7 -13 -16 -13 -19 0 -4 -14 -20 -31 -36 -17 -16
-28 -33 -24 -39 4 -6 12 -5 21 5 21 21 33 19 27 -5 -3 -10 -15 -22 -27 -26
-29 -9 -36 -22 -36 -69 0 -22 -5 -58 -11 -80 -5 -22 -12 -60 -15 -85 -3 -25
-10 -50 -15 -56 -9 -11 -30 -186 -26 -214 1 -8 -3 -42 -10 -75 -12 -58 -33
-281 -33 -339 0 -23 3 -26 14 -17 8 6 12 26 10 47 -1 22 2 37 10 40 7 3 19 23
26 45 10 31 18 39 37 39 18 0 23 -5 23 -26 0 -21 -4 -24 -20 -19 -16 5 -20 2
-20 -14 0 -12 -7 -21 -15 -21 -11 0 -15 -11 -15 -41 0 -41 0 -41 35 -37 l35 4
0 -43 c0 -24 -4 -43 -10 -43 -5 0 -10 -6 -10 -13 0 -13 -56 -67 -63 -60 -3 2
-2 -8 0 -22 4 -17 1 -25 -9 -25 -10 0 -13 -10 -10 -35 2 -19 8 -37 12 -40 14
-9 37 40 45 93 5 35 12 52 21 52 8 0 19 11 24 25 13 33 18 32 13 -2 -3 -16 -7
-50 -10 -78 -3 -27 -9 -53 -14 -56 -5 -3 -13 -45 -18 -93 -5 -48 -14 -93 -20
-99 -6 -6 -11 -31 -11 -55 0 -24 -4 -52 -10 -62 -5 -10 -12 -60 -14 -112 -5
-105 -16 -172 -35 -206 -7 -14 -10 -36 -6 -54 5 -19 3 -33 -5 -38 -6 -4 -16
-54 -21 -116 -6 -60 -15 -114 -20 -120 -5 -6 -11 -33 -14 -60 -2 -27 -7 -61
-11 -76 -4 -19 -2 -28 6 -28 10 0 11 -19 6 -77 -5 -66 -3 -83 14 -113 l19 -35
2 30 c1 17 1 38 0 47 -2 19 14 24 24 9 7 -12 -17 -101 -27 -101 -4 0 -8 -9 -8
-20 0 -27 -28 -25 -33 2 -2 13 -2 -13 1 -57 3 -44 9 -83 15 -86 11 -7 -1 -71
-15 -80 -12 -8 -12 -31 0 -109 5 -36 7 -79 5 -97 -4 -28 -7 -30 -19 -18 -17
16 -19 52 -3 57 7 2 8 22 3 58 -8 55 -8 55 -16 20 -4 -19 -10 -69 -14 -110 -6
-72 -14 -108 -14 -62 0 12 -4 22 -9 22 -15 0 -26 -109 -12 -123 8 -8 11 -8 12
1 1 7 2 17 3 22 0 6 6 14 12 18 6 4 14 19 18 35 10 43 29 34 21 -10 -3 -21 -9
-71 -12 -110 -5 -82 -17 -94 -29 -30 l-7 42 -8 -35 c-4 -19 -9 -52 -10 -72 -2
-21 -5 -35 -8 -33 -2 3 -10 0 -17 -6 -9 -7 -10 -19 -3 -41 5 -18 6 -34 4 -37
-3 -2 -5 0 -6 5 0 5 -6 -13 -13 -40 -10 -37 -11 -67 -3 -127 8 -65 7 -89 -7
-137 -9 -32 -16 -79 -16 -105 0 -25 -4 -49 -10 -52 -6 -3 -10 -26 -10 -50 0
-24 -4 -46 -9 -50 -5 -3 -13 -50 -16 -105 -4 -55 -11 -100 -16 -100 -5 0 -9
-13 -9 -29 0 -40 -18 -84 -30 -76 -6 4 -10 -14 -10 -47 0 -37 3 -48 10 -38 17
28 23 -16 6 -49 -9 -16 -16 -37 -16 -46 0 -8 -4 -15 -9 -15 -10 0 -22 -55 -25
-111 -1 -21 -13 -50 -29 -71 -15 -19 -27 -40 -27 -46 0 -6 -5 -12 -11 -14 -6
-2 -15 -37 -20 -78 -5 -41 -14 -77 -19 -78 -6 -2 -10 -21 -10 -43 0 -21 -4
-39 -10 -39 -5 0 -10 -11 -10 -25 0 -13 -7 -28 -16 -33 -17 -9 -43 -74 -44
-109 0 -13 -4 -23 -8 -23 -5 0 -16 -18 -25 -40 -15 -39 -40 -52 -51 -27 -3 6
-3 2 0 -10 4 -17 1 -23 -11 -23 -11 0 -15 -5 -11 -15 3 -9 0 -15 -9 -15 -8 0
-15 -6 -15 -14 0 -7 -6 -19 -14 -26 -8 -6 -12 -18 -9 -26 3 -10 0 -12 -10 -9
-11 5 -13 0 -9 -21 l5 -27 18 24 c10 13 19 32 19 41 0 9 4 20 10 23 12 8 6
-85 -7 -110 -9 -15 -11 -15 -16 -1 -12 31 -34 6 -35 -42 -1 -36 1 -43 9 -29 5
9 15 17 22 17 7 0 27 14 45 31 18 17 36 28 40 25 3 -4 2 -10 -3 -14 -6 -4 -15
-16 -21 -27 -13 -23 -61 -53 -88 -54 -11 -1 -16 -4 -13 -8 4 -3 2 -12 -4 -19
-8 -10 38 -62 198 -222 548 -550 1125 -986 1803 -1364 158 -88 432 -227 542
-274 l76 -32 12 28 c7 16 18 31 27 34 8 3 11 10 8 16 -4 6 1 25 9 42 11 21 13
34 6 38 -7 5 -6 11 4 19 8 7 23 32 32 57 9 24 21 44 25 44 5 0 9 9 9 19 0 10
6 21 14 24 8 3 23 29 33 56 10 28 21 51 25 51 5 0 8 9 8 20 0 11 9 29 19 39
11 11 25 38 31 60 6 22 15 43 20 46 6 3 10 15 10 26 0 11 7 33 15 49 8 16 22
62 30 101 9 40 20 78 26 85 6 7 9 17 6 21 -3 4 -1 26 3 48 4 22 8 30 9 18 0
-13 4 -23 9 -23 4 0 8 10 9 23 7 87 32 269 37 275 20 19 34 6 47 -45 15 -66
27 -50 29 37 2 98 57 335 83 355 16 12 57 96 57 116 0 8 9 38 20 67 11 29 20
61 20 72 0 11 4 20 9 20 5 0 11 8 15 18 3 9 10 24 15 32 6 8 13 42 16 74 4 33
10 54 14 47 16 -26 55 119 65 243 2 21 8 41 13 45 5 3 9 49 9 103 -1 53 2 91
5 86 4 -6 12 7 19 28 7 22 16 41 19 44 3 3 16 23 28 45 19 35 22 63 29 217 9
230 -4 295 -84 433 -45 77 -204 276 -332 415 -14 15 -65 72 -115 126 -49 54
-122 132 -161 174 -40 41 -90 98 -111 125 -22 28 -47 56 -57 64 -10 8 -24 27
-32 42 -7 15 -31 47 -51 71 -21 24 -54 72 -73 106 -19 34 -50 86 -68 115 -92
146 -203 425 -307 769 -47 159 -91 385 -116 608 -29 256 -30 392 -4 1045 3 83
8 202 10 265 5 153 14 264 25 325 5 28 14 91 20 140 6 50 18 122 25 160 57
278 96 458 104 473 29 58 69 184 78 249 3 26 15 70 25 98 10 27 30 84 44 125
14 41 29 82 33 90 4 8 14 47 21 85 8 43 21 78 34 89 12 13 15 21 8 24 -18 6
-15 19 9 43 15 15 24 41 29 84 4 35 11 69 15 75 4 7 10 40 12 73 2 33 10 69
18 81 8 11 16 34 16 51 l1 30 8 -30 7 -30 21 46 c12 26 19 54 15 67 -3 12 -1
22 5 22 5 0 13 21 17 48 4 26 17 74 30 107 24 60 39 108 70 220 9 33 23 72 31
87 8 15 22 81 31 145 8 65 19 127 24 138 4 11 10 36 13 55 9 64 36 195 46 224
5 16 10 44 10 62 0 18 5 36 10 39 6 3 10 15 10 26 0 10 4 19 9 19 4 0 14 27
20 60 7 33 16 62 21 65 6 4 10 17 10 30 0 13 6 36 14 52 48 98 66 139 66 150
0 16 62 147 72 151 4 2 8 14 8 26 0 13 10 43 23 67 13 24 32 67 42 94 10 28
24 57 30 65 7 8 20 37 30 63 10 26 22 50 26 53 5 3 9 16 9 28 0 24 63 154 99
205 12 16 21 33 21 38 0 4 9 19 20 33 11 14 20 33 20 43 0 9 4 17 9 17 4 0 18
21 29 48 28 60 39 77 85 125 20 21 37 40 37 43 0 13 84 110 166 191 52 51 94
98 94 103 0 6 3 10 8 10 4 0 18 10 32 23 14 12 50 38 80 57 30 19 59 40 63 47
4 7 15 13 22 13 8 0 15 5 15 10 0 6 6 10 13 10 8 0 22 10 33 21 10 12 38 34
61 50 46 32 213 121 213 114 0 -2 21 2 48 10 26 8 60 15 75 15 15 0 30 7 33
15 4 8 14 15 24 15 11 0 22 4 25 10 10 16 87 34 138 31 32 -1 52 3 63 14 9 9
29 19 45 22 16 3 29 9 29 14 0 13 34 11 47 -2 9 -9 20 -6 46 10 19 11 42 21
51 21 9 0 16 5 16 10 0 6 21 10 46 10 41 0 151 29 197 52 10 5 59 17 109 28
81 17 120 30 90 30 -7 0 -12 11 -12 25 0 23 2 24 21 13 18 -11 23 -10 39 10
10 12 25 22 33 22 9 0 23 7 31 16 9 8 16 11 16 5 0 -5 -8 -14 -17 -20 -17 -9
-17 -10 0 -17 10 -4 23 -2 30 5 16 16 52 14 67 -4 14 -17 30 -20 30 -6 0 5 -9
13 -20 16 -11 3 -20 11 -20 16 0 6 -7 17 -15 26 -25 24 -7 36 45 29 l48 -6 5
32 c6 41 2 46 -24 29 -30 -18 -33 -8 -8 34 21 35 25 37 66 33 27 -2 43 1 43 8
0 6 6 17 14 24 8 6 12 18 9 26 -3 8 0 14 6 14 6 0 11 -4 11 -10 0 -5 4 -10 9
-10 12 0 35 60 33 87 -3 33 18 28 31 -7 6 -16 15 -30 20 -30 4 0 2 10 -5 23
-18 31 -17 129 0 122 21 -8 33 4 23 23 -4 9 -11 30 -15 45 -6 25 -4 28 13 22
14 -4 21 -1 24 12 3 14 7 11 19 -15 16 -35 28 -33 28 5 0 16 -4 22 -11 17 -9
-5 -10 7 -5 44 5 39 3 54 -10 67 -9 9 -13 19 -10 23 10 9 45 -38 46 -60 0 -9
4 -19 9 -22 16 -11 23 -59 9 -68 -9 -6 -10 -10 -2 -15 17 -12 26 -48 26 -116
0 -55 1 -58 9 -29 5 17 14 32 18 32 5 0 14 12 19 28 24 65 10 -18 -18 -107
-18 -59 -26 -100 -21 -109 7 -13 10 -11 15 6 4 12 12 22 17 22 6 0 7 14 4 34
-5 22 -3 36 6 41 9 6 11 2 6 -14 -3 -13 -1 -34 5 -46 8 -19 7 -27 -6 -40 -17
-17 -32 -62 -23 -71 3 -3 16 6 28 19 13 13 35 27 48 30 21 5 23 3 19 -22 -3
-23 -1 -27 17 -23 23 4 50 -21 40 -38 -10 -16 -25 -2 -18 17 4 11 3 14 -5 9
-7 -4 -12 -14 -12 -22 0 -8 -4 -14 -9 -14 -5 0 -12 -8 -15 -17 -6 -16 -6 -16
12 0 25 23 32 21 32 -8 0 -14 5 -25 10 -25 6 0 10 9 10 20 0 11 4 20 9 20 5 0
12 8 14 18 4 16 5 16 6 0 0 -10 8 -18 16 -18 21 0 -2 -48 -27 -55 -11 -4 -18
-16 -18 -31 0 -30 12 -31 25 -2 8 19 18 23 59 23 31 0 51 -5 53 -12 3 -7 -1
-13 -8 -13 -13 0 -38 -29 -38 -45 -1 -5 8 1 18 14 10 13 25 22 36 20 23 -5 32
-29 11 -29 -9 0 -16 -5 -16 -10 0 -6 11 -8 26 -4 25 6 26 5 20 -20 -8 -32 11
-35 51 -8 15 9 24 12 20 6 -11 -18 35 -43 67 -37 20 4 27 2 26 -8 -4 -28 0
-39 15 -39 11 0 15 -12 15 -45 0 -39 3 -45 20 -45 11 0 24 8 27 17 9 23 43 56
51 48 3 -3 1 -15 -6 -25 -16 -26 -15 -29 8 -23 11 3 20 10 20 15 0 5 10 8 23
6 23 -4 24 -8 12 -45 -5 -19 -2 -23 14 -23 12 0 21 -4 21 -10 0 -5 12 -10 28
-10 15 0 38 -9 52 -20 14 -11 30 -20 36 -20 6 0 17 -7 24 -15 7 -9 29 -15 51
-15 20 0 44 -7 53 -15 17 -17 46 -20 46 -5 0 6 5 10 11 10 26 0 150 -55 173
-77 14 -12 31 -23 37 -23 17 0 117 -48 124 -60 4 -6 10 -8 15 -5 9 6 80 -64
80 -78 0 -13 43 -46 58 -47 8 0 42 -29 77 -65 35 -36 66 -65 68 -65 16 0 100
-99 119 -140 13 -27 28 -50 35 -50 6 0 19 -10 27 -22 9 -12 16 -18 16 -13 1
15 40 -75 40 -90 0 -7 9 -24 20 -37 51 -61 70 -87 70 -96 0 -5 7 -13 16 -16 8
-3 13 -10 9 -16 -3 -5 3 -20 15 -32 12 -13 31 -43 43 -68 12 -25 32 -62 44
-82 13 -21 23 -45 23 -54 0 -25 33 -117 48 -132 6 -7 12 -19 12 -26 0 -7 12
-41 26 -77 15 -35 40 -118 56 -184 16 -66 40 -141 52 -167 12 -26 23 -70 25
-100 2 -58 8 -70 21 -48 16 25 23 2 12 -39 -7 -31 -7 -43 3 -51 7 -6 16 -27
20 -48 4 -20 13 -48 20 -62 7 -14 16 -45 20 -70 3 -25 17 -76 30 -115 34 -101
92 -313 100 -365 4 -25 18 -85 32 -135 23 -83 25 -109 28 -330 1 -132 8 -303
14 -380 7 -77 9 -165 6 -196 -4 -36 -3 -59 4 -63 6 -4 8 -24 5 -49 -3 -23 1
-96 10 -162 9 -65 16 -143 16 -172 0 -28 4 -74 9 -100 9 -45 16 -150 41 -558
6 -93 18 -263 26 -378 22 -278 15 -527 -20 -737 -14 -85 -30 -211 -36 -280 -6
-69 -16 -165 -21 -215 -6 -49 -14 -130 -18 -180 -3 -49 -10 -95 -14 -101 -11
-19 -19 -191 -9 -198 6 -3 13 8 17 26 16 79 28 86 38 23 7 -45 -9 -95 -32 -95
-27 0 -49 -56 -76 -185 -8 -38 -22 -101 -31 -140 -8 -38 -19 -90 -24 -115 -11
-62 -49 -211 -59 -235 -5 -11 -18 -45 -29 -75 -81 -219 -156 -399 -208 -495
-9 -16 -38 -71 -65 -121 -45 -87 -77 -140 -192 -316 -91 -141 -175 -242 -361
-432 -37 -39 -75 -86 -82 -104 -16 -37 -30 -192 -28 -323 1 -102 32 -415 44
-444 8 -19 39 -145 67 -270 7 -33 17 -118 23 -189 11 -152 6 -193 -60 -501
-25 -113 -128 -534 -165 -670 -14 -49 -29 -108 -35 -131 -5 -22 -16 -53 -25
-70 -8 -16 -15 -43 -15 -59 0 -17 -6 -39 -14 -50 -7 -11 -17 -36 -21 -55 -4
-19 -11 -39 -15 -45 -4 -5 -10 -26 -13 -45 -3 -19 -13 -53 -23 -75 -10 -22
-19 -44 -19 -50 -1 -5 -8 -30 -17 -55 -44 -127 -49 -148 -47 -231 2 -53 -2
-93 -10 -108 -14 -26 -21 -171 -8 -171 5 0 5 -5 2 -11 -4 -6 -13 -8 -21 -5
-17 7 -19 -20 -1 -27 9 -4 9 -8 -2 -15 -7 -5 -10 -15 -6 -22 12 -19 -4 -80
-22 -80 -12 0 -13 -3 -4 -14 12 -14 9 -27 -100 -376 -58 -187 -70 -233 -63
-239 11 -11 420 63 686 124 1083 251 2144 745 3035 1414 208 157 355 279 348
291 -4 6 2 10 12 10 20 0 166 125 171 147 4 18 -34 56 -47 48 -5 -3 -13 0 -17
6 -3 6 -2 14 4 18 20 12 -4 34 -32 29 -17 -3 -31 1 -42 13 -21 23 -12 51 13
42 17 -7 17 -6 0 11 -10 10 -21 31 -24 47 -3 16 -9 29 -14 29 -5 0 -9 7 -9 15
0 18 -28 65 -48 80 -18 14 -5 45 16 38 12 -5 14 -2 7 13 -4 10 -14 41 -21 68
-8 28 -18 54 -24 60 -5 5 -10 28 -10 51 0 23 -4 45 -9 51 -4 5 -14 32 -21 59
-7 28 -21 61 -29 75 -17 26 -17 85 0 75 13 -8 11 6 -6 54 -8 23 -16 52 -18 64
-2 12 -6 29 -10 37 -3 8 -10 44 -17 80 -6 36 -16 74 -20 85 -11 26 -20 105
-20 172 1 28 -4 54 -9 58 -6 3 -11 0 -11 -7 -1 -20 -30 23 -30 44 0 10 -5 27
-12 38 -9 15 -9 24 1 42 10 20 10 31 -3 64 -20 54 -26 137 -10 159 13 17 8 49
-6 40 -5 -3 -6 4 -3 15 3 11 1 20 -5 20 -15 0 -33 122 -26 169 5 34 4 41 -10
41 -9 0 -16 8 -16 20 0 11 -9 24 -19 28 -22 8 -71 75 -71 97 0 8 11 17 25 21
15 4 25 13 25 25 0 12 -5 16 -14 13 -8 -3 -17 -1 -21 5 -3 7 2 11 14 11 17 0
19 6 16 46 -3 42 -15 63 -38 64 -4 0 -3 -9 3 -20 9 -16 8 -20 -5 -20 -9 0 -17
6 -19 13 -2 6 -9 33 -16 59 -7 26 -20 55 -29 65 -35 41 -51 83 -31 83 6 0 10
-7 10 -15 0 -8 4 -15 9 -15 5 0 23 -22 40 -50 31 -51 44 -58 71 -40 13 8 13
10 -1 10 -9 0 -21 12 -27 26 -7 15 -17 22 -24 18 -8 -5 -9 0 -5 17 4 13 7 32
7 42 0 10 5 15 10 12 21 -13 9 31 -15 53 -21 21 -24 30 -20 72 3 27 0 52 -5
55 -6 3 -10 28 -10 56 0 37 -4 49 -15 49 -12 0 -15 15 -15 78 -1 52 -5 83 -15
97 -17 22 -11 83 10 100 18 15 -13 85 -38 85 -12 0 -17 8 -17 28 0 56 -8 115
-18 121 -6 3 -14 19 -17 34 -9 35 2 80 17 71 8 -5 9 5 4 36 -5 35 -3 45 14 60
16 14 20 28 18 64 0 26 -5 49 -10 52 -4 3 -8 -2 -8 -10 0 -10 -9 -16 -21 -16
-16 0 -19 4 -14 18 28 68 28 144 0 159 -7 5 -15 38 -19 83 -6 72 -6 74 9 47 9
-15 14 -36 10 -46 -3 -11 3 -25 15 -36 15 -13 19 -26 15 -42 -4 -16 -1 -23 10
-23 17 0 21 45 5 55 -5 3 -10 35 -10 70 0 35 -7 92 -16 126 -10 38 -14 80 -10
106 3 24 2 43 -3 43 -5 0 -12 35 -16 78 -4 42 -12 80 -17 83 -6 4 -12 28 -14
55 -9 126 -22 225 -31 236 -5 7 -11 32 -12 56 -1 23 -10 62 -21 87 -10 24 -20
66 -21 92 -1 26 -8 64 -14 83 -20 57 -29 181 -15 190 9 6 8 16 -6 41 -9 19
-22 39 -29 44 -18 15 -38 91 -32 116 4 13 -5 66 -18 119 -16 64 -22 105 -17
124 11 40 -10 155 -31 171 -21 15 -22 25 -2 25 13 0 15 12 14 63 -1 34 -5 67
-8 72 -3 6 -7 19 -8 30 -1 11 -8 68 -15 128 -9 85 -15 107 -27 107 -30 0 -58
153 -31 162 7 2 7 43 0 128 -5 69 -12 156 -14 193 -4 80 -11 94 -21 38 -8 -49
-30 -54 -39 -10 -9 45 -8 49 10 49 15 0 16 9 10 61 -3 33 -9 66 -12 71 -11 17
-34 -21 -34 -54 0 -29 0 -29 -25 -11 -13 10 -25 23 -25 29 0 6 -6 17 -14 23
-8 7 -17 30 -21 52 -4 21 -10 41 -14 43 -6 4 -5 72 6 233 3 45 1 89 -5 98 -24
44 -53 -489 -30 -563 8 -25 6 -40 -6 -66 -9 -19 -16 -50 -16 -69 0 -20 -4 -39
-10 -42 -5 -3 -10 -15 -10 -26 0 -10 -7 -19 -15 -19 -15 0 -24 -28 -45 -132
-6 -32 -12 -58 -14 -58 -5 0 3 298 10 362 7 66 6 68 -16 68 -22 0 -23 2 -16
61 3 34 6 71 7 83 0 19 1 19 10 -4 8 -20 12 -22 19 -10 5 8 12 11 16 7 4 -4
13 -2 20 3 14 12 8 48 -14 72 -11 13 -13 29 -7 65 17 103 0 343 -24 351 -11 4
-13 -16 -11 -109 5 -173 1 -271 -9 -265 -19 12 -26 102 -33 408 -2 92 -7 170
-10 173 -3 3 -9 -24 -13 -60 -4 -37 -13 -82 -21 -101 -18 -43 -18 -51 4 -56
14 -4 17 -15 14 -64 -9 -213 -5 -391 10 -400 12 -7 1 -282 -12 -299 -11 -14
-23 -130 -25 -240 -1 -49 -5 -132 -10 -182 -6 -71 -5 -93 4 -93 9 0 12 -39 10
-152 -1 -84 2 -213 6 -285 7 -120 6 -133 -9 -133 -9 0 -16 -8 -16 -17 0 -14
-2 -15 -9 -5 -4 7 -9 55 -10 105 0 51 -7 142 -14 202 -14 126 -13 246 4 426
10 105 9 214 -4 342 -1 9 -7 17 -15 17 -10 0 -11 6 -5 23 12 32 10 172 -4 242
-8 41 -8 77 -1 113 6 39 6 57 -2 67 -7 8 -13 54 -15 102 -4 120 -23 301 -32
316 -4 7 -6 23 -5 37 2 20 1 22 -7 10 -8 -11 -11 4 -10 55 0 39 3 63 6 55 14
-43 16 -44 24 -15 5 19 5 31 -1 33 -6 2 -10 45 -10 98 0 56 -4 94 -10 94 -14
0 -13 87 2 92 9 3 7 35 -7 126 -11 66 -21 119 -24 117 -8 -8 -30 45 -25 59 3
7 -2 16 -11 20 -9 3 -13 11 -10 16 6 10 -15 97 -35 145 -14 32 -22 167 -10
160 6 -4 18 -1 26 6 12 10 14 28 8 98 -4 47 -11 97 -17 111 -6 14 -12 34 -13
45 -9 73 -32 155 -44 155 -5 0 -11 -8 -13 -17 -3 -10 -4 11 -3 47 1 36 -3 76
-10 90 -16 33 -44 132 -44 157 0 26 -36 69 -43 51 -3 -7 -6 -1 -6 14 -1 15 4
30 9 33 16 10 12 25 -5 19 -15 -6 -18 12 -19 93 0 13 -8 25 -18 29 -18 5 -21
14 -33 87 -7 44 -1 47 20 10 l16 -28 -5 40 c-12 92 -76 305 -91 305 -11 0 -26
-23 -39 -60 -3 -8 -5 17 -4 55 1 59 -1 70 -15 69 -10 -1 -17 4 -17 11 0 7 -7
18 -15 25 -9 7 -15 29 -15 55 0 26 -6 48 -15 55 -13 11 -15 6 -15 -33 0 -24
-3 -58 -6 -74 -5 -26 -3 -31 19 -37 27 -6 37 -40 37 -126 0 -49 6 -63 31 -72
9 -4 19 -19 22 -35 25 -117 36 -183 37 -210 0 -18 7 -58 16 -90 10 -32 20 -87
24 -123 5 -43 7 -52 8 -28 2 29 5 36 17 32 10 -4 15 -20 15 -45 0 -28 -4 -39
-15 -39 -19 0 -19 -20 1 -48 13 -19 14 -33 4 -94 -10 -67 -9 -72 10 -85 18
-13 20 -24 19 -89 -2 -80 -13 -97 -23 -36 -13 79 -24 118 -25 92 -2 -23 -3
-24 -15 -8 -7 10 -16 15 -19 11 -11 -10 -8 -171 3 -178 12 -8 13 -75 1 -93 -6
-11 -10 -8 -14 10 -3 12 -6 26 -6 31 0 4 -7 20 -15 36 -9 16 -18 66 -22 112
-3 46 -13 111 -21 144 -8 33 -19 89 -24 125 -4 36 -15 83 -22 104 -15 41 -12
79 7 73 6 -2 14 -21 17 -43 4 -21 12 -52 17 -69 10 -30 10 -29 11 13 1 23 -5
58 -13 76 -7 18 -17 62 -21 97 -4 35 -11 69 -15 74 -4 6 -15 35 -25 65 -10 30
-23 67 -31 81 -8 16 -12 53 -11 100 3 66 -8 125 -24 139 -10 8 -49 183 -49
218 0 18 -5 42 -10 52 -6 12 -7 21 0 25 5 3 7 20 3 38 -5 31 -5 31 13 14 10
-9 19 -26 19 -37 0 -11 5 -21 10 -22 14 -4 19 72 6 85 -16 16 -13 73 4 87 20
16 23 13 28 -35 6 -46 27 -95 63 -144 13 -19 22 -41 19 -49 -3 -7 -2 -24 1
-38 5 -18 13 -24 33 -23 14 0 20 3 14 6 -7 2 -13 19 -13 37 0 22 -9 42 -25 58
-22 22 -23 27 -11 37 16 14 11 41 -8 41 -11 0 -46 65 -46 84 0 4 -7 14 -15 23
-8 8 -12 19 -9 25 8 12 64 -47 64 -68 0 -8 5 -14 10 -14 6 0 10 -7 10 -16 0
-9 9 -27 20 -41 11 -15 28 -51 37 -82 15 -54 31 -90 44 -101 16 -13 30 -54 35
-102 7 -71 12 -87 24 -68 7 12 11 12 25 0 13 -11 16 -25 12 -60 -3 -25 -3 -37
0 -27 6 23 23 22 23 -2 0 -11 5 -42 12 -70 12 -53 33 -64 33 -18 0 14 3 29 8
33 16 16 6 112 -18 172 -14 34 -25 74 -25 90 0 16 -7 50 -16 76 -9 26 -14 50
-11 53 12 11 27 -9 38 -50 26 -97 44 -143 65 -167 12 -14 19 -31 17 -37 -3 -7
1 -13 7 -13 7 0 10 -7 6 -15 -3 -9 3 -20 14 -27 11 -7 20 -20 20 -28 0 -13 1
-13 10 0 7 10 5 18 -4 26 -12 8 -11 12 4 22 16 10 21 8 30 -6 9 -16 11 -16 25
2 8 11 15 30 15 43 0 13 6 23 15 23 11 0 14 -17 14 -85 -1 -68 2 -90 16 -105
18 -20 13 -60 -9 -60 -7 0 -20 -6 -29 -12 -16 -12 -16 -17 -1 -73 8 -33 18
-82 21 -110 6 -56 8 -60 21 -51 6 3 6 24 1 53 -7 35 -6 49 3 55 17 10 26 -15
27 -69 1 -23 5 -44 10 -47 7 -5 13 -44 26 -175 2 -18 8 -38 14 -44 6 -6 11
-25 11 -42 0 -17 6 -39 14 -50 14 -21 31 -107 27 -137 -2 -12 5 -18 18 -18 18
0 21 6 21 40 0 22 -9 82 -21 133 -12 50 -21 107 -20 125 0 18 -4 44 -9 58 -6
16 -6 41 0 70 8 37 7 52 -5 76 -8 17 -15 48 -15 69 0 21 -5 50 -11 66 l-11 28
-14 -30 -13 -30 -2 40 c-1 22 -3 53 -4 68 -1 15 2 30 6 33 5 3 9 19 9 35 0 17
-4 28 -9 24 -14 -8 -30 27 -22 49 11 28 -25 225 -48 266 -11 19 -25 67 -31
105 -6 39 -16 84 -21 102 -7 22 -7 39 0 51 6 11 8 22 5 24 -2 3 2 11 10 17 12
10 13 19 5 39 -6 15 -11 43 -11 62 0 43 -7 57 -20 39 -6 -10 -7 -7 -3 8 4 14
0 32 -9 45 -9 12 -16 34 -15 48 0 14 3 19 6 13 5 -13 33 -18 33 -7 0 4 -8 13
-17 20 -12 9 -14 13 -5 14 9 0 7 8 -7 26 -25 31 -27 50 -6 58 8 3 12 12 9 21
-8 19 -24 20 -24 0 0 -17 -16 -20 -25 -5 -3 6 1 13 9 16 23 9 19 48 -11 112
-15 31 -28 62 -29 67 -2 6 -12 35 -24 65 -12 30 -24 63 -27 73 -6 19 13 24 20
5 3 -8 6 -6 6 5 1 9 -5 17 -12 17 -7 0 -32 39 -56 88 -49 100 -74 145 -82 152
-3 3 -11 21 -19 40 -7 19 -20 42 -27 51 -8 9 -16 30 -17 45 -3 20 -9 29 -21
27 -12 -1 -15 4 -12 19 4 13 1 18 -7 15 -14 -6 -66 37 -66 53 0 18 19 10 25
-10 4 -11 11 -18 16 -15 5 4 9 1 9 -6 0 -7 2 -10 5 -7 3 3 -7 25 -23 49 -17
24 -36 63 -43 87 -6 23 -16 42 -20 42 -4 0 -10 9 -14 19 -3 11 -19 34 -35 52
-16 18 -26 37 -23 42 3 5 -4 11 -15 14 -16 4 -43 41 -46 63 -1 3 -11 15 -23
28 -13 12 -23 26 -23 32 0 5 -16 17 -36 26 -30 15 -37 15 -45 3 -7 -11 -9 -11
-9 4 0 9 -7 17 -15 17 -8 0 -15 7 -15 15 0 8 -4 15 -10 15 -5 0 -10 6 -10 13
0 8 -11 20 -25 27 -14 7 -25 19 -25 27 0 7 -9 13 -20 13 -11 0 -20 5 -20 10 0
6 -14 10 -31 10 -24 0 -30 4 -25 15 6 17 -7 45 -41 83 -13 14 -23 29 -23 33 0
5 -4 9 -10 9 -14 0 -50 32 -50 45 0 6 -8 15 -19 22 -10 6 -22 29 -26 50 -4 21
-12 44 -18 52 -10 12 -9 12 10 3 32 -18 38 -15 18 8 -10 11 -24 20 -32 20 -7
0 -13 6 -13 14 0 8 -10 17 -22 20 -13 4 -36 24 -53 46 -17 21 -39 39 -50 40
-14 0 -16 3 -8 8 9 6 7 13 -9 26 -16 14 -25 16 -39 8 -22 -14 -31 -5 -16 19
15 24 25 24 51 2 19 -18 19 -17 5 3 -21 32 -79 78 -87 69 -4 -3 2 -13 12 -21
11 -7 17 -16 14 -19 -9 -10 -38 25 -38 46 0 11 -8 23 -17 26 -18 7 -48 31 -95
76 -16 15 -34 27 -40 27 -11 0 -66 38 -102 72 -11 10 -23 18 -28 18 -4 0 -8 6
-8 13 0 7 -16 21 -35 31 -19 11 -35 23 -35 28 0 4 -7 8 -15 8 -8 0 -38 14 -67
31 -29 17 -69 37 -88 44 -19 7 -48 20 -65 29 -16 9 -35 16 -42 16 -6 0 -13 4
-15 9 -1 5 -37 23 -78 39 -41 16 -79 38 -85 48 -10 19 -15 21 -98 31 -30 4
-46 10 -44 17 3 6 -6 17 -19 23 -13 6 -24 7 -24 2 0 -5 -5 -9 -11 -9 -5 0 -7
5 -4 11 4 6 1 9 -6 8 -16 -2 -42 6 -82 27 -38 19 -54 18 -85 -7 l-26 -20 -8
21 c-6 17 -11 19 -27 10 -29 -15 -41 -12 -41 10 0 29 -19 25 -32 -7 l-12 -28
-4 28 c-2 21 -9 27 -27 27 -13 0 -32 3 -42 6 -13 4 -15 3 -4 -4 11 -8 11 -11
0 -18 -7 -4 -14 -3 -17 4 -4 13 -32 17 -32 4 0 -5 -7 -17 -16 -28 -15 -18 -15
-18 -9 11 l6 30 -19 -23 c-17 -22 -22 -23 -56 -14 -21 6 -44 8 -53 5 -8 -3
-19 0 -24 8 -7 11 -9 11 -9 -3 0 -13 -8 -18 -26 -18 -17 0 -28 -6 -31 -20 -5
-18 -35 -30 -32 -12 4 23 -5 29 -43 28 -28 -1 -45 -6 -50 -16 -5 -11 -7 -10
-7 5 -1 12 -4 16 -9 9 -10 -16 -52 -28 -52 -15 0 6 5 11 10 11 6 0 10 5 10 10
0 6 -5 10 -11 10 -7 0 -18 8 -25 17 -18 26 -29 8 -14 -26 9 -22 9 -34 0 -48
-10 -16 -10 -15 -4 6 4 15 1 27 -7 32 -23 14 -31 10 -24 -11 5 -14 2 -20 -9
-20 -9 0 -16 7 -16 15 0 8 -5 15 -11 15 -16 0 -89 63 -89 78 0 7 -5 10 -10 7
-6 -4 -17 -1 -25 5 -8 6 -19 9 -25 5 -7 -4 -14 2 -17 14 -3 12 -7 21 -10 21
-15 0 -43 -23 -43 -35 0 -38 -40 -22 -54 22 -8 26 -36 38 -48 21 -6 -10 -8
-10 -8 2 0 8 -9 0 -20 -17 -21 -36 -30 -39 -48 -21 -9 9 -12 9 -12 -1 0 -7 -5
-9 -11 -5 -8 4 -8 9 0 17 20 20 -46 37 -144 37 -62 0 -95 4 -97 12 -6 18 -59
0 -65 -23 -4 -13 -11 -18 -20 -15 -8 3 -24 6 -34 6 -11 0 -18 4 -15 8 2 4 -12
9 -32 10 -64 3 -112 13 -112 23 0 5 -4 9 -10 9 -5 0 -9 -5 -7 -11 3 -16 -36
-21 -45 -6 -10 17 -108 16 -108 0 0 -15 -12 -17 -25 -4 -13 11 -75 22 -75 13z
m1010 -112 c0 -5 -4 -10 -10 -10 -5 0 -10 5 -10 10 0 6 5 10 10 10 6 0 10 -4
10 -10z m-165 -40 c-3 -11 -3 -20 2 -20 11 0 33 -72 33 -107 0 -26 -2 -25 -19
12 -20 45 -34 119 -24 128 12 12 14 7 8 -13z m1311 -118 c-11 -10 -14 3 -7 38
l6 35 3 -33 c2 -19 1 -36 -2 -40z m-19 -34 c-3 -8 -6 -5 -6 6 -1 11 2 17 5 13
3 -3 4 -12 1 -19z m-3077 -24 c0 -6 -65 -34 -77 -33 -4 0 10 9 32 19 48 22 45
21 45 14z m-130 -78 c0 -2 -7 -7 -16 -10 -8 -3 -12 -2 -9 4 6 10 25 14 25 6z
m215 -166 c-3 -5 -18 -10 -33 -10 -21 0 -24 2 -12 10 20 13 53 13 45 0z m-329
-56 c-11 -7 -22 -11 -25 -8 -3 3 3 12 13 20 11 7 22 11 25 8 3 -3 -3 -12 -13
-20z m109 -54 c-3 -5 -11 -10 -16 -10 -6 0 -7 5 -4 10 3 6 11 10 16 10 6 0 7
-4 4 -10z m-237 -20 c-7 -11 -30 -28 -50 -38 -21 -9 -38 -23 -38 -29 0 -17
-20 -17 -20 0 0 7 22 26 50 42 27 17 50 33 50 38 0 4 5 7 10 7 6 0 5 -8 -2
-20z m167 -20 c-3 -5 -11 -10 -17 -10 -6 0 -17 -8 -24 -17 -10 -13 -13 -14
-14 -4 0 16 29 40 48 41 7 0 10 -4 7 -10z m2329 -398 c-9 -20 -19 -31 -22 -24
-2 7 3 21 12 31 9 10 16 22 15 27 -1 5 0 16 1 24 2 11 4 10 7 -3 3 -10 -3 -35
-13 -55z m2256 58 c0 -5 -4 -10 -10 -10 -5 0 -10 5 -10 10 0 6 5 10 10 10 6 0
10 -4 10 -10z m-2955 -410 c3 -6 -1 -7 -9 -4 -18 7 -21 14 -7 14 6 0 13 -4 16
-10z m3233 -7 c16 -16 16 -16 -1 -10 -10 4 -23 7 -28 7 -6 0 -7 5 -4 10 9 14
14 13 33 -7z m-5888 -13 c0 -5 -2 -10 -4 -10 -3 0 -8 5 -11 10 -3 6 -1 10 4
10 6 0 11 -4 11 -10z m2814 -31 c18 -17 1 -16 -44 3 l-45 19 40 -7 c22 -3 44
-10 49 -15z m3144 7 c33 -17 66 -55 56 -64 -4 -4 -9 -1 -11 6 -3 6 -14 12 -25
12 -22 0 -41 16 -51 43 -8 21 -4 21 31 3z m-3091 -42 c-3 -3 -12 -4 -19 -1 -8
3 -5 6 6 6 11 1 17 -2 13 -5z m-272 -44 c3 -5 -1 -10 -9 -10 -9 0 -16 5 -16
10 0 6 4 10 9 10 6 0 13 -4 16 -10z m3475 -51 c10 -17 14 -18 27 -7 15 12 15
11 5 -9 -16 -30 -15 -43 4 -43 28 0 71 -60 58 -81 -8 -14 -58 40 -84 91 -11
21 -24 41 -30 45 -13 8 -13 25 0 25 5 0 14 -9 20 -21z m-6170 -9 c0 -5 -5 -10
-11 -10 -5 0 -7 5 -4 10 3 6 8 10 11 10 2 0 4 -4 4 -10z m4038 -162 c-6 -18
-28 -21 -28 -4 0 9 7 16 16 16 9 0 14 -5 12 -12z m2362 -95 c0 -17 -5 -16 -24
3 -23 22 -20 37 4 22 11 -7 20 -18 20 -25z m-2130 -3 c0 -5 -4 -10 -10 -10 -5
0 -10 5 -10 10 0 6 5 10 10 10 6 0 10 -4 10 -10z m-4603 -232 c-3 -8 -6 -5 -6
6 -1 11 2 17 5 13 3 -3 4 -12 1 -19z m-20 -40 c-3 -8 -6 -5 -6 6 -1 11 2 17 5
13 3 -3 4 -12 1 -19z m6960 -179 c2 -17 -1 -18 -12 -9 -8 7 -12 16 -9 21 9 16
20 10 21 -12z m-7087 -99 c0 -5 -5 -10 -11 -10 -5 0 -7 5 -4 10 3 6 8 10 11
10 2 0 4 -4 4 -10z m7149 -200 c0 -13 -1 -13 -6 0 -3 8 -9 17 -13 20 -4 3 -11
16 -14 30 -7 23 -6 23 13 -5 12 -16 21 -37 20 -45z m-7242 18 c-3 -8 -6 -5 -6
6 -1 11 2 17 5 13 3 -3 4 -12 1 -19z m-27 -37 c0 -13 -31 -43 -38 -36 -3 3 3
14 14 24 22 23 24 24 24 12z m950 -24 c0 -7 -9 -18 -20 -25 -22 -14 -25 -9
-10 19 12 21 30 26 30 6z m-59 -87 c-8 -4 -11 -15 -8 -24 4 -10 -1 -23 -13
-33 -11 -10 -20 -27 -20 -38 0 -11 -5 -27 -11 -35 -8 -11 -9 -2 -6 35 3 27 10
51 16 53 6 2 11 9 11 15 0 14 32 49 39 42 3 -4 -1 -10 -8 -15z m6507 -164 c3
-12 -1 -17 -10 -14 -7 3 -15 13 -16 22 -3 12 1 17 10 14 7 -3 15 -13 16 -22z
m-195 -66 c3 -11 1 -20 -4 -20 -5 0 -9 4 -9 9 0 5 -3 17 -7 27 -4 11 -3 15 4
11 6 -4 13 -16 16 -27z m-6394 -27 c-5 -21 -12 -53 -16 -70 -3 -19 -12 -33
-20 -33 -8 0 -22 -18 -30 -40 -9 -22 -20 -40 -25 -40 -4 0 -8 -10 -8 -23 0
-12 -9 -47 -21 -77 -11 -30 -29 -82 -39 -115 -10 -33 -25 -77 -34 -97 -9 -21
-16 -49 -16 -63 0 -14 -3 -25 -8 -25 -9 0 -25 -47 -52 -150 -11 -41 -24 -82
-28 -90 -9 -16 -32 -99 -77 -280 -15 -58 -31 -113 -36 -122 -5 -10 -9 -23 -9
-30 0 -19 20 5 41 49 l19 38 -6 -35 c-3 -19 -14 -46 -25 -60 -51 -66 -53 -134
-14 -361 9 -50 14 -94 11 -97 -4 -3 -6 4 -6 16 0 11 -5 24 -11 27 -5 4 -9 17
-8 28 2 21 -3 40 -22 82 -5 11 -10 49 -11 85 -4 81 -9 69 -43 -100 -15 -74
-31 -153 -36 -175 -5 -22 -14 -69 -20 -105 -6 -36 -17 -79 -25 -97 -8 -17 -14
-44 -14 -60 l-1 -28 -14 25 c-19 32 -19 68 0 104 8 15 15 35 15 43 0 8 5 11
10 8 6 -3 10 5 10 19 0 14 12 72 26 128 15 57 28 128 30 158 2 30 13 89 25
130 33 119 58 251 57 303 0 26 2 51 6 54 3 3 6 -11 7 -33 l1 -39 14 50 c7 28
11 56 8 64 -6 17 16 111 27 111 3 0 9 17 13 38 3 22 13 63 22 93 8 30 20 71
26 92 6 20 14 37 18 37 12 0 19 54 9 66 -6 8 -4 14 7 18 13 5 15 14 10 39 -3
18 -2 27 2 19 17 -26 37 19 82 183 4 17 24 68 44 114 19 46 43 109 52 140 22
78 42 114 60 107 8 -3 14 -1 14 4 0 6 4 10 9 10 5 0 5 -16 0 -37z m6064 14 c3
-8 1 -20 -4 -28 -6 -10 -9 -7 -9 14 0 29 5 35 13 14z m-57 -102 c4 -8 12 -15
20 -15 16 0 19 -36 4 -45 -6 -3 -14 4 -19 17 l-10 23 0 -22 c-1 -41 -21 -24
-21 17 0 40 15 54 26 25z m454 -41 c0 -8 5 -14 10 -14 6 0 10 -7 10 -16 0 -28
-22 -10 -35 29 -11 32 -11 36 1 26 8 -6 14 -18 14 -25z m-6503 -16 c-3 -8 -6
-5 -6 6 -1 11 2 17 5 13 3 -3 4 -12 1 -19z m6611 -29 c2 -23 2 -23 -13 -5 -18
24 -20 39 -2 34 6 -3 13 -15 15 -29z m-6633 -55 c-11 -39 -19 -53 -25 -44 -9
14 -6 26 17 78 22 51 27 31 8 -34z m6095 16 c0 -16 -4 -30 -10 -30 -5 0 -10 3
-10 8 0 4 -3 17 -6 30 -5 16 -2 22 10 22 11 0 16 -9 16 -30z m578 -43 c6 -7 9
-23 5 -35 -4 -15 -1 -22 10 -22 28 0 36 -102 10 -135 -15 -20 -15 -20 -10 2 3
12 -1 24 -8 27 -7 2 -15 30 -18 68 -3 35 -8 73 -12 86 -8 24 6 30 23 9z m-73
-77 c3 -5 1 -10 -4 -10 -6 0 -11 5 -11 10 0 6 2 10 4 10 3 0 8 -4 11 -10z
m-6635 -70 c-16 -39 -23 -32 -14 15 4 25 10 33 17 26 7 -7 6 -20 -3 -41z
m6660 -24 c0 -28 -19 -74 -21 -51 0 6 -3 32 -6 59 -4 45 -3 48 11 37 9 -8 16
-28 16 -45z m-7710 -146 c0 -5 -5 -10 -11 -10 -5 0 -7 5 -4 10 3 6 8 10 11 10
2 0 4 -4 4 -10z m255 -139 c-4 -23 -10 -41 -15 -41 -4 0 -11 -16 -14 -35 -4
-19 -10 -35 -14 -35 -5 0 -16 -24 -26 -52 -26 -75 -44 -114 -59 -126 -8 -7
-20 -31 -27 -54 -35 -117 -60 -183 -74 -200 -9 -10 -16 -23 -16 -28 0 -13 -70
-160 -76 -160 -11 0 9 76 22 86 8 6 14 14 14 18 0 4 14 36 30 71 17 35 30 78
30 94 0 16 5 33 10 36 6 3 10 15 10 25 0 27 21 70 31 64 5 -3 9 6 9 20 0 13 6
26 13 29 10 4 10 7 0 18 -18 18 -16 37 8 84 l20 40 -6 -35 c-4 -19 -9 -45 -12
-57 -10 -43 15 -23 32 25 19 56 64 151 81 172 6 8 15 32 18 54 4 21 10 36 13
33 3 -3 2 -24 -2 -46z m7219 -11 c20 -67 17 -103 -6 -50 -17 41 -30 110 -20
110 4 0 15 -27 26 -60z m-7297 8 c-3 -8 -6 -5 -6 6 -1 11 2 17 5 13 3 -3 4
-12 1 -19z m758 -85 c-9 -15 -13 -19 -10 -8 4 11 10 40 14 65 l6 45 3 -37 c2
-21 -4 -49 -13 -65z m-775 0 c-11 -14 -20 -33 -20 -41 0 -8 -3 -12 -7 -9 -8 9
30 87 40 80 4 -2 -2 -16 -13 -30z m-153 -15 c-3 -7 -5 -2 -5 12 0 14 2 19 5
13 2 -7 2 -19 0 -25z m883 -8 c0 -5 -5 -10 -11 -10 -5 0 -7 5 -4 10 3 6 8 10
11 10 2 0 4 -4 4 -10z m30 -39 c0 -11 -4 -23 -10 -26 -5 -3 -11 -18 -11 -33
-1 -19 -3 -21 -6 -9 -7 26 6 87 17 87 6 0 10 -9 10 -19z m-60 -51 c-7 -29 -10
-69 -7 -91 3 -21 1 -42 -5 -45 -5 -3 -6 -19 -3 -36 5 -19 -1 -54 -16 -101 -21
-64 -24 -68 -33 -47 -8 17 -7 25 2 28 7 2 12 23 12 50 1 26 5 67 11 92 5 25
14 74 19 110 12 76 20 104 27 96 3 -3 0 -28 -7 -56z m6437 -102 c-3 -7 -5 -2
-5 12 0 14 2 19 5 13 2 -7 2 -19 0 -25z m-6662 -113 c-8 -22 -14 -32 -15 -23
0 17 21 70 26 65 2 -1 -3 -21 -11 -42z m6965 -97 c0 -19 -2 -20 -10 -8 -13 19
-13 30 0 30 6 0 10 -10 10 -22z m-6814 -105 c-8 -27 -18 -72 -21 -100 -4 -29
-10 -53 -14 -53 -10 0 -4 109 8 148 5 17 8 32 5 32 -2 0 4 9 14 20 23 28 27
10 8 -47z m-227 -57 c-9 -8 -10 -7 -5 7 3 10 7 26 7 35 1 9 4 6 6 -7 3 -13 -1
-28 -8 -35z m7079 9 c0 -34 -10 -45 -23 -24 -9 13 3 59 14 59 5 0 9 -16 9 -35z
m-18 -59 c0 -8 -7 -17 -16 -20 -23 -9 -24 -8 -24 14 0 13 7 20 20 20 11 0 20
-6 20 -14z m-4 -125 c-13 -20 -26 -11 -26 16 0 25 1 26 16 11 9 -9 13 -21 10
-27z m-6923 -53 c-6 -33 -23 -63 -23 -41 0 27 13 73 21 73 5 0 6 -15 2 -32z
m6960 12 c3 -10 -1 -27 -9 -37 -12 -16 -13 -14 -14 20 0 39 14 50 23 17z
m-7813 -67 c-7 -21 -14 -44 -16 -50 -2 -7 -8 -13 -14 -13 -15 0 -2 70 18 93
22 25 26 14 12 -30z m7735 37 c7 -11 -11 -40 -24 -40 -4 0 -8 11 -9 25 -2 26
20 35 33 15z m49 -94 c5 -49 4 -57 -7 -48 -17 15 -26 6 -20 -18 3 -11 11 -16
19 -13 10 4 14 -3 14 -26 0 -17 -4 -31 -10 -31 -5 0 -10 10 -10 22 0 12 -3 18
-7 15 -3 -4 -12 1 -19 11 -12 16 -13 15 -14 -7 0 -17 -3 -22 -10 -15 -7 7 -3
29 10 67 11 31 20 65 20 76 0 11 6 21 13 24 15 5 13 11 21 -57z m-7944 -98 c0
-4 -7 -8 -15 -8 -10 0 -15 10 -15 28 1 26 1 26 15 8 8 -11 15 -23 15 -28z
m8020 21 c0 -6 -4 -7 -10 -4 -5 3 -10 11 -10 16 0 6 5 7 10 4 6 -3 10 -11 10
-16z m-7467 -39 c-5 -19 -23 -39 -23 -25 0 9 20 45 24 45 2 0 2 -9 -1 -20z
m7244 -47 c-3 -10 -5 -4 -5 12 0 17 2 24 5 18 2 -7 2 -21 0 -30z m165 -22 c2
-22 0 -37 -4 -35 -8 5 -11 74 -4 74 2 0 6 -18 8 -39z m-7906 3 c-4 -9 -9 -15
-11 -12 -3 3 -3 13 1 22 4 9 9 15 11 12 3 -3 3 -13 -1 -22z m191 -26 c-3 -8
-6 -5 -6 6 -1 11 2 17 5 13 3 -3 4 -12 1 -19z m7760 -25 c4 -64 16 -139 25
-149 11 -15 13 -98 2 -115 -5 -9 -13 12 -22 61 -25 143 -29 185 -21 208 11 29
14 28 16 -5z m-217 -27 c0 -3 -4 -8 -10 -11 -5 -3 -10 -1 -10 4 0 6 5 11 10
11 6 0 10 -2 10 -4z m157 -28 c-3 -8 -6 -5 -6 6 -1 11 2 17 5 13 3 -3 4 -12 1
-19z m-7100 -40 c-3 -7 -5 -2 -5 12 0 14 2 19 5 13 2 -7 2 -19 0 -25z m20 -35
c-3 -10 -5 -4 -5 12 0 17 2 24 5 18 2 -7 2 -21 0 -30z m-912 -85 c-27 -73 -58
-178 -76 -253 -6 -21 -14 -44 -19 -50 -4 -5 -11 -27 -15 -47 -10 -53 -21 -48
-17 7 2 25 8 45 12 45 5 0 11 19 15 43 4 23 12 47 17 54 5 6 10 28 11 47 1 20
5 36 8 36 4 0 10 12 14 28 11 48 69 186 73 174 2 -6 -9 -44 -23 -84z m911 -76
c16 -15 16 -19 4 -47 -7 -18 -8 -18 -15 8 -9 35 -23 35 -17 -1 4 -30 -8 -122
-33 -241 -11 -54 -12 -77 -4 -82 7 -4 8 -12 4 -18 -9 -16 -22 -100 -40 -260
-8 -74 -19 -139 -25 -145 -15 -15 -13 50 4 131 8 37 18 107 22 156 4 48 11 87
15 87 12 0 11 48 -1 52 -6 2 -5 31 4 83 7 44 14 114 15 155 2 86 9 138 22 146
5 3 10 29 10 57 l2 52 10 -60 c5 -32 16 -65 23 -73z m-369 96 c-3 -8 -6 -5 -6
6 -1 11 2 17 5 13 3 -3 4 -12 1 -19z m394 -45 c-8 -15 -10 -15 -11 -2 0 17 10
32 18 25 2 -3 -1 -13 -7 -23z m-404 -5 c-3 -8 -6 -5 -6 6 -1 11 2 17 5 13 3
-3 4 -12 1 -19z m650 -40 c-2 -13 -4 -3 -4 22 0 25 2 35 4 23 2 -13 2 -33 0
-45z m-927 43 c0 -6 -4 -13 -10 -16 -5 -3 -10 1 -10 9 0 9 5 16 10 16 6 0 10
-4 10 -9z m540 -403 c-7 -32 -17 -58 -22 -58 -9 0 -1 44 13 72 5 9 10 34 10
55 1 27 3 31 6 14 3 -14 -1 -51 -7 -83z m-920 -38 c0 -11 -2 -20 -4 -20 -2 0
-6 9 -9 20 -3 11 -1 20 4 20 5 0 9 -9 9 -20z m8307 -52 c-3 -7 -5 -2 -5 12 0
14 2 19 5 13 2 -7 2 -19 0 -25z m-7415 -50 c-8 -8 -9 -4 -5 13 4 13 8 18 11
10 2 -7 -1 -18 -6 -23z m-922 -15 c0 -32 -5 -28 -14 10 -4 19 -3 26 4 22 5 -3
10 -18 10 -32z m8360 -18 c0 -8 -4 -15 -10 -15 -5 0 -10 7 -10 15 0 8 5 15 10
15 6 0 10 -7 10 -15z m-7460 -54 c0 -6 -4 -13 -10 -16 -5 -3 -10 1 -10 9 0 9
5 16 10 16 6 0 10 -4 10 -9z m7397 -153 c-3 -8 -6 -5 -6 6 -1 11 2 17 5 13 3
-3 4 -12 1 -19z m73 -32 c0 -3 -4 -8 -10 -11 -5 -3 -10 -1 -10 4 0 6 5 11 10
11 6 0 10 -2 10 -4z m-7450 -56 c0 -5 -4 -10 -10 -10 -5 0 -10 5 -10 10 0 6 5
10 10 10 6 0 10 -4 10 -10z m-16 -62 c7 -28 -14 -138 -27 -138 -5 0 -7 10 -3
23 3 12 6 48 6 80 0 57 13 76 24 35z m-25 -196 c-4 -21 -13 -49 -18 -63 -8
-20 -9 -16 -6 19 7 61 16 93 25 87 4 -3 4 -22 -1 -43z m-102 -24 c-3 -8 -6 -5
-6 6 -1 11 2 17 5 13 3 -3 4 -12 1 -19z m-10 -190 c-3 -8 -6 -5 -6 6 -1 11 2
17 5 13 3 -3 4 -12 1 -19z m-10 -50 c-3 -7 -5 -2 -5 12 0 14 2 19 5 13 2 -7 2
-19 0 -25z m7660 -90 c-2 -13 -4 -3 -4 22 0 25 2 35 4 23 2 -13 2 -33 0 -45z
m-7687 -46 c-8 -43 -16 -60 -25 -50 -3 2 2 26 11 52 20 57 25 56 14 -2z m7857
-34 c-2 -13 -4 -5 -4 17 -1 22 1 32 4 23 2 -10 2 -28 0 -40z m-8741 -15 c-10
-10 -19 5 -10 18 6 11 8 11 12 0 2 -7 1 -15 -2 -18z m864 -64 c0 -5 -4 -9 -10
-9 -5 0 -10 7 -10 16 0 8 5 12 10 9 6 -3 10 -10 10 -16z m8200 -44 c0 -14 -4
-25 -10 -25 -5 0 -10 4 -10 9 0 5 -3 16 -6 25 -4 11 -1 16 10 16 10 0 16 -9
16 -25z m17 -177 c-2 -24 -4 -5 -4 42 0 47 2 66 4 43 2 -24 2 -62 0 -85z
m-9109 13 c3 -16 -1 -22 -10 -19 -7 3 -15 15 -16 27 -3 16 1 22 10 19 7 -3 15
-15 16 -27z m8896 2 c-10 -40 -14 -41 -14 -5 0 18 5 32 10 32 6 0 8 -11 4 -27z
m-15 -147 c-9 -8 -10 -7 -5 7 3 10 7 28 7 40 2 16 3 14 6 -7 3 -16 -1 -34 -8
-40z m-8905 -52 c14 -6 14 -8 -3 -23 -14 -12 -20 -30 -19 -60 0 -50 -16 -75
-27 -41 -4 14 -2 25 5 30 9 5 9 9 1 14 -15 9 -14 41 1 66 14 22 18 23 42 14z
m697 -81 c-9 -16 -10 -15 -11 8 0 14 3 29 8 33 12 12 14 -22 3 -41z m8200 -65
l-11 -33 5 40 c3 22 6 54 7 70 1 27 2 26 5 -7 2 -20 -1 -51 -6 -70z m-8973 63
c18 -11 11 -56 -7 -56 -8 0 -18 12 -22 27 -9 36 1 47 29 29z m62 -101 c0 -5
-4 -10 -10 -10 -5 0 -10 5 -10 10 0 6 5 10 10 10 6 0 10 -4 10 -10z m-32 -93
c0 -12 -2 -35 -5 -51 -5 -25 -7 -27 -15 -12 -11 20 0 99 12 91 5 -3 9 -15 8
-28z m8939 -112 c-1 -74 -4 -129 -6 -122 -2 6 -9 15 -15 19 -13 8 -13 60 -2
171 12 120 26 81 23 -68z m-8270 93 c-3 -8 -6 -5 -6 6 -1 11 2 17 5 13 3 -3 4
-12 1 -19z m-696 -60 c1 -13 3 -33 4 -46 1 -12 -2 -25 -6 -28 -5 -3 -9 -16 -9
-29 0 -14 -9 -29 -20 -35 -20 -11 -21 -9 -17 42 7 82 45 158 48 96z m1026 -50
c-3 -8 -6 -5 -6 6 -1 11 2 17 5 13 3 -3 4 -12 1 -19z m7580 -100 c-3 -8 -6 -5
-6 6 -1 11 2 17 5 13 3 -3 4 -12 1 -19z m54 -158 c-8 -21 -10 -18 -10 27 -1
69 13 104 17 43 2 -25 -1 -57 -7 -70z m-8724 58 c-3 -7 -5 -2 -5 12 0 14 2 19
5 13 2 -7 2 -19 0 -25z m80 -45 c-3 -10 -5 -4 -5 12 0 17 2 24 5 18 2 -7 2
-21 0 -30z m-93 -47 c-9 -89 -31 -90 -25 -1 2 30 21 78 28 71 2 -2 1 -33 -3
-70z m9003 17 c-3 -10 -5 -2 -5 17 0 19 2 27 5 18 2 -10 2 -26 0 -35z m-330
-75 c-3 -8 -6 -5 -6 6 -1 11 2 17 5 13 3 -3 4 -12 1 -19z m380 -10 c-3 -7 -5
-2 -5 12 0 14 2 19 5 13 2 -7 2 -19 0 -25z m-8896 -211 c-10 -9 -11 -8 -5 6 3
10 9 15 12 12 3 -3 0 -11 -7 -18z m8516 -124 c-3 -54 -6 -102 -7 -108 -1 -5
-1 -57 -1 -115 0 -58 0 -114 0 -125 0 -11 -7 -40 -16 -64 -11 -30 -14 -64 -11
-110 6 -64 -9 -136 -27 -136 -5 0 -10 -45 -11 -100 -3 -97 -11 -148 -33 -210
-10 -27 -10 -26 -6 15 3 25 7 83 10 130 8 147 17 225 27 231 5 3 13 97 18 208
6 112 12 207 15 211 3 5 8 46 11 92 4 46 8 97 9 113 1 17 3 38 4 48 0 9 6 17
12 17 7 0 9 -32 6 -97z m187 -115 c7 -99 5 -158 -6 -158 -11 0 -11 7 -12 132
-1 60 2 108 6 108 3 0 9 -37 12 -82z m24 -364 c-1 -41 -5 -74 -8 -74 -15 0
-30 54 -30 104 0 58 6 71 26 55 9 -7 13 -35 12 -85z m-185 -126 c-2 -79 0
-177 4 -219 5 -42 6 -100 3 -130 -5 -49 -7 -43 -18 71 -19 179 -22 399 -5 393
7 -3 13 2 13 11 0 9 2 16 3 16 2 0 2 -64 0 -142z m193 -16 c-12 -11 -18 7 -10
30 l8 23 4 -23 c2 -13 1 -26 -2 -30z m-14 -89 c3 -21 2 -49 -2 -63 -6 -21 -8
-18 -12 20 -3 25 -9 53 -13 63 -5 12 -2 17 8 17 10 0 16 -13 19 -37z m313
-121 c-22 -5 -29 3 -21 25 7 17 8 17 22 -2 13 -18 13 -20 -1 -23z m-218 -187
c-2 -71 -1 -103 2 -70 4 39 9 54 14 44 5 -9 7 -20 6 -25 -2 -5 1 -23 5 -41 9
-40 -16 -92 -46 -93 -10 0 -27 60 -29 105 -3 62 0 75 16 75 26 0 31 84 10 162
-4 16 -4 36 0 45 15 35 26 -69 22 -202z m-9120 153 c-3 -7 -5 -2 -5 12 0 14 2
19 5 13 2 -7 2 -19 0 -25z m8933 -10 c0 -5 -4 -8 -10 -8 -5 0 -10 10 -10 23 0
18 2 19 10 7 5 -8 10 -18 10 -22z m-142 -108 c0 -52 -3 -84 -5 -70 -3 14 -9
29 -14 35 -10 10 -12 138 -2 148 15 16 23 -23 21 -113z m270 91 c-3 -22 -1
-28 10 -23 12 4 12 1 3 -16 -6 -11 -11 -32 -11 -46 0 -40 -27 -21 -33 22 -4
34 15 92 29 92 4 0 4 -13 2 -29z m717 -183 c4 -17 3 -28 -3 -28 -10 0 -22 32
-22 60 0 22 18 -1 25 -32z m-9725 -2 c0 -3 -4 -8 -10 -11 -5 -3 -10 -1 -10 4
0 6 5 11 10 11 6 0 10 -2 10 -4z m8670 -20 c0 -40 -11 -56 -36 -56 l-25 0 23
40 c26 46 38 51 38 16z m744 -116 l7 -35 -15 29 c-9 15 -16 35 -16 42 0 8 -4
14 -10 14 -5 0 -7 7 -3 16 5 14 8 13 18 -7 7 -13 16 -40 19 -59z m-9465 -2 c1
-10 -3 -18 -9 -18 -5 0 -10 19 -9 43 1 36 2 38 9 17 4 -14 8 -33 9 -42z m8880
-81 c1 -43 -3 -59 -14 -64 -23 -8 -25 -3 -31 68 -4 49 -2 73 12 104 l18 40 7
-45 c4 -25 8 -71 8 -103z m251 1 c0 -10 4 -18 9 -18 13 0 28 -50 42 -140 7
-44 16 -80 21 -80 4 0 8 -11 8 -24 0 -14 4 -27 9 -30 5 -3 11 -23 14 -43 3
-21 8 -48 12 -60 5 -16 3 -23 -6 -23 -18 0 -46 62 -54 118 -4 23 -10 42 -14
42 -15 0 -59 181 -68 280 -4 44 -3 44 11 20 9 -14 15 -33 16 -42z m660 -88 c0
-5 -4 -10 -10 -10 -5 0 -10 5 -10 10 0 6 5 10 10 10 6 0 10 -4 10 -10z m-911
-92 c-2 -78 -2 -80 -9 -33 -12 72 -11 115 0 115 6 0 9 -33 9 -82z m658 -30
c-3 -7 -5 -2 -5 12 0 14 2 19 5 13 2 -7 2 -19 0 -25z m264 -30 c3 -37 -4 -94
-12 -102 -5 -6 -9 -2 -9 11 0 12 -8 35 -17 52 -16 28 -16 33 -3 41 21 14 40
12 41 -2z m-1054 -40 c-3 -7 -5 -2 -5 12 0 14 2 19 5 13 2 -7 2 -19 0 -25z
m80 -40 c-2 -13 -4 -3 -4 22 0 25 2 35 4 23 2 -13 2 -33 0 -45z m73 -38 c0
-11 -4 -20 -10 -20 -5 0 -10 9 -10 20 0 11 5 20 10 20 6 0 10 -9 10 -20z m-50
-46 c0 -8 -4 -14 -10 -14 -5 0 -10 9 -10 21 0 11 5 17 10 14 6 -3 10 -13 10
-21z m65 -101 c-8 -36 -28 -28 -21 8 3 17 6 43 7 58 1 23 2 21 10 -9 5 -19 6
-45 4 -57z m473 21 c4 -33 -11 -24 -23 15 -5 17 -4 22 6 19 8 -3 15 -18 17
-34z m-938 4 c-6 -13 -15 -35 -21 -50 -6 -16 -15 -28 -20 -28 -13 0 -11 9 12
57 21 44 46 62 29 21z m860 -30 c0 -5 -4 -8 -8 -8 -15 0 -32 24 -32 45 0 19 2
18 20 -5 11 -14 20 -28 20 -32z m-460 -140 c0 -40 3 -104 6 -143 10 -126 5
-177 -17 -145 -11 19 -10 360 2 360 5 0 9 -33 9 -72z m70 55 c0 -10 3 -28 6
-40 5 -17 2 -23 -10 -23 -12 0 -16 10 -16 40 0 22 5 40 10 40 6 0 10 -8 10
-17z m30 -103 c0 -13 -7 -20 -20 -20 -13 0 -20 7 -20 20 0 13 7 20 20 20 13 0
20 -7 20 -20z m-13 -102 c-2 -13 -4 -3 -4 22 0 25 2 35 4 23 2 -13 2 -33 0
-45z m809 -75 c-4 -4 -11 -1 -16 7 -16 25 -11 35 7 17 9 -9 13 -20 9 -24z
m-789 -15 c-3 -8 -6 -5 -6 6 -1 11 2 17 5 13 3 -3 4 -12 1 -19z m833 -107 c0
-6 -7 -11 -15 -11 -8 0 -15 6 -15 13 0 6 -3 23 -7 37 l-6 25 22 -27 c11 -14
21 -31 21 -37z m-940 -1 c0 -11 -2 -20 -4 -20 -2 0 -6 9 -9 20 -3 11 -1 20 4
20 5 0 9 -9 9 -20z m44 -105 c-3 -19 -12 -39 -20 -46 -12 -10 -14 -2 -14 48 0
68 7 82 27 53 9 -13 12 -32 7 -55z m851 7 c-3 -3 -11 0 -18 7 -9 10 -8 11 6 5
10 -3 15 -9 12 -12z m59 -91 c-7 -7 -34 28 -34 43 1 6 10 0 21 -13 11 -13 17
-27 13 -30z m56 34 c0 -8 -2 -15 -4 -15 -2 0 -6 7 -10 15 -3 8 -1 15 4 15 6 0
10 -7 10 -15z m-10026 -85 c-6 -5 -24 21 -24 34 0 6 6 1 14 -10 8 -10 12 -21
10 -24z m9546 10 c0 -5 -2 -10 -4 -10 -3 0 -8 5 -11 10 -3 6 -1 10 4 10 6 0
11 -4 11 -10z m-9470 -20 c0 -5 -5 -10 -11 -10 -5 0 -7 5 -4 10 3 6 8 10 11
10 2 0 4 -4 4 -10z m9350 -529 c0 -6 -4 -13 -10 -16 -5 -3 -10 1 -10 9 0 9 5
16 10 16 6 0 10 -4 10 -9z m771 -106 c6 -22 12 -44 13 -50 2 -5 8 -28 14 -50
22 -79 30 -125 22 -130 -15 -9 -33 26 -34 69 -1 25 -7 50 -13 58 -6 7 -14 36
-18 63 -5 28 -10 55 -11 60 -2 6 -6 24 -9 40 l-6 30 15 -25 c9 -14 21 -43 27
-65z m-1650 -215 c5 0 8 -22 7 -50 -3 -63 -14 -44 -20 35 -3 33 -4 50 -1 38 2
-13 9 -23 14 -23z m1649 -36 c0 -8 -4 -14 -10 -14 -5 0 -10 9 -10 21 0 11 5
17 10 14 6 -3 10 -13 10 -21z m66 -5 c4 -7 8 -30 9 -53 1 -23 6 -53 10 -68 4
-17 3 -28 -2 -28 -13 0 -43 93 -43 131 0 29 13 38 26 18z m-58 -70 l3 -34 -16
29 c-18 34 -19 49 -2 44 6 -3 13 -20 15 -39z m47 -137 c4 -26 9 -60 12 -76 3
-19 2 -26 -6 -22 -6 4 -11 17 -11 29 0 12 -7 31 -15 41 -8 11 -15 38 -15 59 0
33 2 38 15 27 7 -6 17 -33 20 -58z m-1655 18 c0 -5 -4 -10 -10 -10 -5 0 -10 5
-10 10 0 6 5 10 10 10 6 0 10 -4 10 -10z m20 -65 c0 -14 -4 -25 -10 -25 -5 0
-10 11 -10 25 0 14 5 25 10 25 6 0 10 -11 10 -25z m1760 -45 c0 -5 -4 -10 -10
-10 -5 0 -10 5 -10 10 0 6 5 10 10 10 6 0 10 -4 10 -10z m-7423 -52 c-3 -8 -6
-5 -6 6 -1 11 2 17 5 13 3 -3 4 -12 1 -19z m7339 -95 c3 -17 -1 -35 -7 -39
-14 -8 -79 60 -79 82 0 23 20 16 32 -11 11 -24 38 -35 38 -15 0 6 -4 10 -10
10 -5 0 -10 17 -10 38 l1 37 16 -35 c8 -19 17 -49 19 -67z m-1667 70 c-1 -10
-5 -29 -9 -43 -7 -21 -8 -19 -9 18 -1 23 4 42 9 42 6 0 10 -8 9 -17z m1667
-159 c-4 -9 -2 -22 4 -29 6 -7 10 -17 9 -21 -4 -21 2 -35 11 -29 6 4 8 10 5
15 -3 5 0 12 6 16 22 13 29 -20 8 -39 -25 -23 -24 -29 6 -65 30 -36 34 -64 6
-38 -11 10 -24 16 -28 13 -5 -3 -15 9 -22 26 -7 18 -17 40 -22 50 -6 10 -7 27
-4 37 3 10 1 21 -5 25 -14 9 -13 42 3 48 23 10 29 7 23 -9z m117 -11 c3 -16 1
-32 -4 -37 -5 -6 -9 -8 -9 -5 0 2 -4 19 -9 37 -7 24 -7 32 4 32 7 0 15 -12 18
-27z m-7543 -69 c0 -8 -4 -12 -10 -9 -5 3 -10 10 -10 16 0 5 5 9 10 9 6 0 10
-7 10 -16z m7471 -164 c11 -8 23 -80 12 -80 -19 0 -45 61 -38 88 5 18 9 22 13
12 3 -8 8 -17 13 -20z m43 22 c3 -5 -1 -9 -9 -9 -8 0 -15 4 -15 9 0 4 4 8 9 8
6 0 12 -4 15 -8z m-4 -32 c0 -5 -2 -10 -4 -10 -3 0 -8 5 -11 10 -3 6 -1 10 4
10 6 0 11 -4 11 -10z m74 -91 c18 -45 14 -59 -11 -43 -17 11 -30 84 -14 84 5
0 16 -19 25 -41z m-10875 -78 c-14 -11 -26 -15 -28 -9 -4 12 17 28 38 28 8 0
3 -8 -10 -19z m10901 5 c0 -3 -4 -8 -10 -11 -5 -3 -10 -1 -10 4 0 6 5 11 10
11 6 0 10 -2 10 -4z m10 -72 c0 -8 -7 -14 -15 -14 -8 0 -15 9 -15 20 0 13 5
18 15 14 8 -4 15 -12 15 -20z m-291 -67 c1 -4 -8 -3 -19 3 -20 10 -27 49 -13
64 6 6 30 -43 32 -67z m263 31 c11 -12 17 -30 15 -40 -3 -9 4 -24 14 -34 10
-9 16 -21 13 -25 -3 -5 2 -12 10 -15 19 -7 19 -14 5 -50 l-10 -28 -19 30 c-11
16 -18 35 -15 43 3 7 0 20 -6 28 -7 7 -22 36 -35 63 -20 43 -21 50 -7 50 9 0
24 -10 35 -22z m-22 -448 c-1 -11 -7 -8 -20 9 -11 13 -20 33 -20 45 0 19 2 18
20 -9 11 -16 20 -37 20 -45z m83 -110 c8 0 7 4 -3 10 -8 5 -10 10 -4 10 6 0
17 -7 24 -15 10 -11 9 -18 -3 -30 -17 -17 -37 -20 -37 -6 0 5 -11 19 -25 32
-15 15 -25 35 -25 53 l0 29 30 -41 c17 -23 36 -42 43 -42z m247 -24 c0 -3 -4
-8 -10 -11 -5 -3 -10 -1 -10 4 0 6 5 11 10 11 6 0 10 -2 10 -4z m-150 -106 c0
-5 -7 -10 -15 -10 -8 0 -15 5 -15 10 0 6 7 10 15 10 8 0 15 -4 15 -10z"/>
<path d="M4532 10610 c0 -14 2 -19 5 -12 2 6 2 18 0 25 -3 6 -5 1 -5 -13z"/>
<path d="M8163 15606 c14 -14 21 -16 30 -7 8 8 8 11 0 11 -6 0 -20 3 -30 7
-17 7 -17 6 0 -11z"/>
<path d="M8710 15509 c0 -5 5 -7 10 -4 6 3 10 8 10 11 0 2 -4 4 -10 4 -5 0
-10 -5 -10 -11z"/>
<path d="M8650 15490 c0 -5 5 -10 11 -10 5 0 7 5 4 10 -3 6 -8 10 -11 10 -2 0
-4 -4 -4 -10z"/>
<path d="M5550 14805 c-13 -14 -21 -25 -17 -25 3 0 17 11 31 25 14 14 22 25
17 25 -4 0 -18 -11 -31 -25z"/>
<path d="M5511 14762 c-1 -7 -5 -11 -9 -8 -12 7 -38 -12 -29 -21 5 -4 12 -1
17 7 8 13 10 13 10 1 0 -11 3 -12 11 -4 6 6 9 17 6 25 -4 10 -6 10 -6 0z"/>
<path d="M10510 14750 c0 -5 5 -10 11 -10 5 0 7 5 4 10 -3 6 -8 10 -11 10 -2
0 -4 -4 -4 -10z"/>
<path d="M5401 14666 l-35 -41 39 37 c22 21 37 39 35 41 -3 2 -20 -15 -39 -37z"/>
<path d="M5454 14654 c3 -9 6 -18 6 -20 0 -2 4 -4 9 -4 5 0 7 9 4 20 -3 11
-10 20 -15 20 -6 0 -7 -7 -4 -16z"/>
<path d="M10769 14507 c13 -16 13 -20 0 -28 -11 -7 -11 -9 4 -9 9 0 17 6 17
14 0 7 -8 20 -17 27 -17 13 -17 12 -4 -4z"/>
<path d="M8257 14450 c3 -11 7 -20 9 -20 2 0 4 9 4 20 0 11 -4 20 -9 20 -5 0
-7 -9 -4 -20z"/>
<path d="M8227 14394 c-6 -10 9 -42 16 -34 3 3 1 14 -3 24 -3 11 -9 15 -13 10z"/>
<path d="M8248 14315 c2 -19 9 -35 14 -35 6 0 7 11 3 28 -10 41 -22 46 -17 7z"/>
<path d="M8330 14299 c0 -5 5 -7 10 -4 6 3 10 8 10 11 0 2 -4 4 -10 4 -5 0
-10 -5 -10 -11z"/>
<path d="M5065 14253 l-17 -28 23 22 c12 12 20 25 17 28 -3 3 -13 -7 -23 -22z"/>
<path d="M8160 14221 c0 -5 5 -13 10 -16 6 -3 10 -2 10 4 0 5 -4 13 -10 16 -5
3 -10 2 -10 -4z"/>
<path d="M8066 14125 c-9 -26 -7 -32 5 -12 6 10 9 21 6 23 -2 3 -7 -2 -11 -11z"/>
<path d="M8407 14133 c-4 -3 -7 -11 -7 -17 0 -6 5 -5 12 2 6 6 9 14 7 17 -3 3
-9 2 -12 -2z"/>
<path d="M8100 14074 c0 -8 5 -12 10 -9 6 4 8 11 5 16 -9 14 -15 11 -15 -7z"/>
<path d="M8596 13931 c-4 -7 -5 -15 -2 -18 9 -9 19 4 14 18 -4 11 -6 11 -12 0z"/>
<path d="M8240 13920 c0 -5 5 -10 11 -10 5 0 7 5 4 10 -3 6 -8 10 -11 10 -2 0
-4 -4 -4 -10z"/>
<path d="M11761 12664 c0 -11 3 -14 6 -6 3 7 2 16 -1 19 -3 4 -6 -2 -5 -13z"/>
<path d="M11820 12589 c0 -5 5 -7 10 -4 6 3 10 8 10 11 0 2 -4 4 -10 4 -5 0
-10 -5 -10 -11z"/>
<path d="M3995 12311 c-3 -5 -1 -12 5 -16 5 -3 10 1 10 9 0 18 -6 21 -15 7z"/>
<path d="M3940 12044 c0 -8 5 -12 10 -9 6 4 8 11 5 16 -9 14 -15 11 -15 -7z"/>
<path d="M11410 12040 c0 -5 5 -10 10 -10 6 0 10 5 10 10 0 6 -4 10 -10 10 -5
0 -10 -4 -10 -10z"/>
<path d="M11765 11870 c-5 -29 -12 -40 -25 -40 -12 0 -19 -10 -23 -37 -7 -40
0 -83 12 -83 15 0 20 14 10 26 -11 13 -3 61 12 70 5 3 14 -8 20 -25 17 -48 33
-38 25 15 -3 26 -6 62 -6 80 0 47 -17 43 -25 -6z"/>
<path d="M11690 11850 c0 -11 5 -20 10 -20 6 0 10 9 10 20 0 11 -4 20 -10 20
-5 0 -10 -9 -10 -20z"/>
<path d="M11542 11830 c0 -14 2 -19 5 -12 2 6 2 18 0 25 -3 6 -5 1 -5 -13z"/>
<path d="M11280 11792 c0 -23 5 -42 10 -42 7 0 8 14 4 38 -9 51 -14 53 -14 4z"/>
<path d="M11630 11753 c0 -21 10 -72 23 -113 20 -67 26 -75 47 -75 28 0 34 23
11 41 -15 12 -19 59 -7 85 5 12 -4 29 -33 58 l-41 42 0 -38z"/>
<path d="M11358 11746 c-3 -14 -2 -26 2 -26 12 0 19 26 10 39 -5 9 -9 4 -12
-13z"/>
<path d="M11575 11750 c-3 -5 -1 -10 4 -10 6 0 11 5 11 10 0 6 -2 10 -4 10 -3
0 -8 -4 -11 -10z"/>
<path d="M3812 11656 c-27 -81 -29 -141 -6 -150 14 -5 15 -4 4 9 -15 18 -7 96
16 150 8 20 13 42 11 48 -1 5 -13 -20 -25 -57z"/>
<path d="M11590 11708 c0 -9 -3 -23 -6 -31 -4 -11 0 -15 13 -13 11 2 17 10 15
22 -5 26 -22 43 -22 22z"/>
<path d="M11744 11653 c5 -54 50 -223 59 -223 4 0 7 23 7 50 0 28 -4 50 -10
50 -5 0 -10 17 -10 39 0 47 -18 101 -33 101 -7 0 -5 5 3 10 13 8 12 10 -2 10
-15 0 -17 -7 -14 -37z"/>
<path d="M11603 11527 c2 -33 8 -62 14 -65 6 -4 15 -41 21 -82 15 -110 39
-159 56 -115 3 8 1 15 -4 15 -6 0 -10 16 -10 36 0 40 -17 121 -31 146 -5 10
-9 24 -9 31 0 7 -9 31 -20 53 l-21 39 4 -58z"/>
<path d="M11714 11518 c3 -13 6 -30 6 -37 0 -11 3 -12 11 -4 14 14 4 63 -12
63 -7 0 -9 -9 -5 -22z"/>
<path d="M11850 11442 c0 -26 4 -52 10 -58 15 -15 21 -172 7 -178 -9 -3 -9 -6
0 -13 6 -5 13 -26 15 -48 2 -22 7 -43 13 -47 6 -4 9 -46 7 -97 -1 -58 3 -105
12 -133 8 -24 27 -144 41 -268 14 -124 32 -250 40 -280 8 -30 13 -39 10 -20
-2 19 -9 107 -15 195 -6 88 -16 185 -22 215 -6 30 -12 62 -13 70 0 9 -4 21 -8
27 -4 7 -7 27 -6 45 1 18 -3 58 -9 88 -6 30 -11 82 -10 115 0 65 -10 171 -19
195 -4 8 -5 19 -4 25 2 5 -2 26 -8 45 -6 19 -13 65 -16 103 -7 77 -25 91 -25
19z"/>
<path d="M3790 11470 c0 -5 5 -10 10 -10 6 0 10 5 10 10 0 6 -4 10 -10 10 -5
0 -10 -4 -10 -10z"/>
<path d="M11708 11454 c-9 -8 1 -92 13 -115 5 -9 9 -54 10 -100 1 -46 5 -88 9
-94 4 -5 13 -66 20 -134 14 -148 52 -406 79 -531 6 -25 10 -66 11 -91 0 -67
10 -109 26 -109 8 0 14 -7 14 -15 0 -8 5 -15 10 -15 6 0 10 -11 10 -25 0 -29
15 -33 29 -8 5 10 13 15 16 11 10 -10 -2 -54 -20 -72 -8 -8 -15 -27 -14 -43 0
-27 1 -27 11 -5 17 34 28 27 28 -18 0 -22 5 -40 10 -40 6 0 10 38 10 95 0 76
-3 95 -14 95 -24 0 -26 13 -31 133 -2 63 -9 135 -16 160 -6 26 -9 57 -6 69 3
11 2 29 -4 39 -5 10 -13 56 -18 103 -7 68 -13 89 -29 103 -18 16 -20 24 -12
63 10 53 2 109 -12 88 -7 -10 -8 -8 -4 5 5 16 -3 71 -24 157 -5 19 -14 61 -20
93 -6 32 -18 70 -26 85 -8 15 -14 39 -14 54 0 15 -6 31 -14 35 -7 4 -15 14
-17 21 -3 7 -8 10 -11 6z m139 -636 c-3 -8 -6 -5 -6 6 -1 11 2 17 5 13 3 -3 4
-12 1 -19z m36 -288 c3 -11 1 -18 -4 -14 -5 3 -9 12 -9 20 0 20 7 17 13 -6z"/>
<path d="M11806 11383 c3 -21 12 -70 20 -110 8 -40 14 -82 14 -95 0 -16 3 -19
9 -10 15 24 -17 243 -36 249 -8 3 -10 -7 -7 -34z"/>
<path d="M3758 11313 c7 -3 16 -2 19 1 4 3 -2 6 -13 5 -11 0 -14 -3 -6 -6z"/>
<path d="M11380 11260 c0 -5 4 -10 9 -10 6 0 13 5 16 10 3 6 -1 10 -9 10 -9 0
-16 -4 -16 -10z"/>
<path d="M11690 11220 c0 -5 7 -10 15 -10 8 0 15 5 15 10 0 6 -7 10 -15 10 -8
0 -15 -4 -15 -10z"/>
<path d="M3682 11140 c0 -14 2 -19 5 -12 2 6 2 18 0 25 -3 6 -5 1 -5 -13z"/>
<path d="M3666 11064 c-3 -26 -4 -49 -2 -52 3 -2 8 17 11 43 4 25 5 48 3 51
-3 2 -8 -17 -12 -42z"/>
<path d="M12160 11060 c0 -19 3 -21 12 -12 9 9 9 15 0 24 -9 9 -12 7 -12 -12z"/>
<path d="M11996 10958 c-8 -33 -7 -86 2 -92 21 -13 30 11 21 58 -11 59 -14 64
-23 34z"/>
<path d="M3662 10940 c0 -14 2 -19 5 -12 2 6 2 18 0 25 -3 6 -5 1 -5 -13z"/>
<path d="M3666 10884 c-4 -14 -5 -29 -2 -31 3 -3 8 7 12 21 3 15 4 29 1 32 -2
3 -8 -7 -11 -22z"/>
<path d="M12010 10718 c0 -29 15 -45 25 -28 3 5 -1 20 -9 32 l-16 22 0 -26z"/>
<path d="M11736 10634 c-11 -28 -6 -54 9 -60 10 -4 13 -13 10 -25 -6 -19 14
-79 26 -79 5 0 -8 144 -16 168 -6 17 -22 15 -29 -4z"/>
<path d="M12027 10633 c-4 -3 -7 -20 -7 -37 l0 -31 15 29 c8 15 15 32 15 37 0
11 -14 12 -23 2z"/>
<path d="M5660 10471 c-9 -17 -13 -18 -34 -7 -13 7 -41 10 -61 8 -30 -4 -36
-8 -32 -23 5 -18 1 -19 -31 -13 -21 4 -52 7 -69 7 -22 -1 -33 4 -33 13 0 9
-11 14 -32 13 -24 -1 -27 -3 -10 -6 34 -7 26 -23 -11 -23 -42 0 -150 -19 -159
-28 -4 -4 -3 -14 2 -22 8 -13 11 -13 22 1 17 22 114 31 129 13 16 -20 59 -18
59 2 0 11 5 14 16 10 9 -3 25 -6 37 -7 21 0 21 -1 2 -9 -11 -5 -33 -11 -48
-15 -43 -9 -22 -25 34 -25 37 0 49 -4 49 -15 0 -8 3 -16 8 -16 4 -1 19 -3 34
-5 15 -1 42 -9 60 -17 18 -8 53 -22 78 -32 25 -10 59 -24 75 -31 17 -7 42 -15
57 -19 15 -4 25 -12 24 -18 -2 -7 -1 -9 1 -4 3 4 13 7 24 7 10 0 19 4 19 8 0
15 109 -6 145 -28 19 -12 39 -19 44 -16 5 4 11 3 13 -2 8 -20 83 -54 126 -57
26 -2 77 -18 114 -34 40 -18 84 -31 108 -31 30 0 47 -7 66 -25 14 -14 33 -25
43 -25 10 0 21 -3 25 -7 12 -12 86 -32 86 -23 0 4 -7 11 -16 14 -9 4 -14 9
-11 12 7 7 44 -13 71 -37 22 -21 36 -24 36 -9 0 6 7 10 15 10 8 0 15 -7 15
-16 0 -8 5 -12 10 -9 6 4 8 16 4 27 -5 18 -3 20 20 14 25 -6 26 -5 14 14 -7
11 -16 20 -19 20 -3 0 -21 22 -40 49 -18 28 -45 56 -59 63 -14 7 -36 23 -50
36 -14 13 -36 28 -49 33 -14 6 -21 15 -18 23 7 16 -19 30 -28 16 -10 -16 -35
-12 -62 10 -14 11 -36 20 -49 20 -33 0 -76 21 -70 35 2 7 -7 12 -22 12 -15 0
-56 14 -93 31 -50 24 -81 31 -135 33 -89 3 -151 17 -159 37 -5 13 -8 12 -20
-4 -8 -10 -15 -14 -15 -8 0 6 -18 14 -41 17 -22 3 -48 12 -58 21 -10 9 -27 16
-39 16 -11 0 -24 5 -27 10 -10 17 -22 11 -29 -12 -4 -17 -8 -20 -17 -11 -8 8
-8 16 0 32 10 18 9 21 -8 21 -11 0 -25 -9 -31 -19z m104 -67 c9 -8 16 -18 16
-20 0 -7 -38 15 -45 26 -10 16 12 12 29 -6z m-257 0 c-3 -3 -12 -4 -19 -1 -8
3 -5 6 6 6 11 1 17 -2 13 -5z m688 -264 c3 -5 -1 -10 -9 -10 -9 0 -16 5 -16
10 0 6 4 10 9 10 6 0 13 -4 16 -10z m505 -80 c0 -5 -2 -10 -4 -10 -3 0 -8 5
-11 10 -3 6 -1 10 4 10 6 0 11 -4 11 -10z m50 -45 c0 -8 -2 -15 -4 -15 -2 0
-6 7 -10 15 -3 8 -1 15 4 15 6 0 10 -7 10 -15z m-165 -15 c-3 -5 -10 -10 -16
-10 -5 0 -9 5 -9 10 0 6 7 10 16 10 8 0 12 -4 9 -10z"/>
<path d="M12040 10406 c0 -36 4 -67 9 -70 12 -8 22 54 15 92 -11 57 -24 45
-24 -22z"/>
<path d="M5117 10434 c-16 -9 -26 -18 -23 -21 3 -3 20 4 38 16 38 24 27 28
-15 5z"/>
<path d="M5198 10443 c7 -3 16 -2 19 1 4 3 -2 6 -13 5 -11 0 -14 -3 -6 -6z"/>
<path d="M5264 10393 c14 -4 16 -7 6 -13 -16 -10 -2 -33 16 -26 7 3 16 1 19
-4 4 -6 15 -10 26 -10 10 0 19 -4 19 -10 0 -8 -40 -6 -77 5 -6 2 -19 -3 -30
-10 -16 -13 -12 -14 42 -15 59 0 104 16 78 27 -7 2 -13 13 -13 24 0 17 -3 18
-20 7 -15 -10 -22 -10 -32 0 -9 9 -9 12 1 12 7 0 9 5 6 10 -3 6 -18 9 -33 9
-20 -1 -22 -3 -8 -6z"/>
<path d="M5126 10381 c-4 -7 -5 -15 -2 -18 9 -9 19 4 14 18 -4 11 -6 11 -12 0z"/>
<path d="M5017 10362 c-19 -21 -22 -32 -7 -32 10 0 34 39 27 46 -2 2 -11 -4
-20 -14z"/>
<path d="M5045 10350 c-3 -5 1 -10 9 -10 9 0 16 5 16 10 0 6 -4 10 -9 10 -6 0
-13 -4 -16 -10z"/>
<path d="M5080 10320 c-13 -3 -26 -12 -28 -19 -3 -10 0 -12 12 -8 10 4 40 7
67 7 28 0 48 4 45 9 -7 11 -66 18 -96 11z"/>
<path d="M5190 10316 c0 -9 7 -16 16 -16 9 0 14 5 12 12 -6 18 -28 21 -28 4z"/>
<path d="M12053 10287 c-7 -25 -6 -81 3 -198 7 -90 13 -212 14 -271 0 -101 1
-108 20 -108 11 0 20 5 20 10 0 6 -5 10 -11 10 -7 0 -9 10 -4 28 3 15 9 37 12
50 4 18 2 21 -12 16 -15 -6 -16 -1 -11 37 3 24 8 64 11 89 6 54 -14 352 -24
363 -4 4 -12 -8 -18 -26z"/>
<path d="M5390 10291 c8 -6 31 -11 50 -12 19 0 44 -4 54 -8 11 -4 36 -3 56 2
29 8 41 7 64 -8 28 -19 66 -27 66 -16 0 14 -70 36 -120 37 -30 1 -84 4 -120 8
-47 6 -61 5 -50 -3z"/>
<path d="M11865 10153 c3 -45 8 -90 12 -99 13 -34 24 26 12 68 -5 22 -8 45 -6
52 3 7 -2 23 -10 37 -13 22 -14 17 -8 -58z"/>
<path d="M11915 10038 c-9 -43 25 -400 37 -382 4 6 6 70 5 142 -1 72 0 126 4
120 13 -20 18 9 10 53 -7 36 -9 39 -10 14 -2 -44 -21 -11 -21 38 0 40 -17 51
-25 15z"/>
<path d="M9320 9865 c-7 -8 -21 -15 -31 -15 -10 0 -21 -4 -24 -10 -9 -14 26
-12 58 3 28 12 33 22 18 31 -5 3 -14 -1 -21 -9z"/>
<path d="M9040 9850 c-13 -11 -29 -20 -35 -20 -7 0 -18 -7 -25 -15 -7 -8 -17
-12 -22 -9 -6 4 -8 -1 -4 -12 4 -15 -2 -23 -27 -34 l-32 -15 29 -3 c23 -3 35
4 59 33 17 21 35 41 41 46 6 5 22 18 36 29 14 10 20 19 14 20 -6 0 -21 -9 -34
-20z"/>
<path d="M9660 9858 c-14 -5 -53 -7 -87 -4 -39 4 -63 2 -63 -4 0 -6 -8 -10
-17 -10 -17 -1 -17 -1 0 -14 23 -18 22 -35 -3 -29 -11 3 -20 9 -20 13 0 4 -28
7 -62 6 -45 -1 -62 3 -61 11 2 7 -4 10 -13 6 -12 -5 -13 -7 -3 -14 8 -4 11
-10 8 -13 -9 -9 -99 25 -99 37 0 13 -55 15 -67 4 -3 -4 -19 -7 -34 -7 -15 0
-31 -4 -34 -10 -3 -5 -16 -10 -29 -10 -24 0 -71 -29 -48 -30 7 0 11 -4 7 -10
-3 -5 -12 -7 -20 -3 -8 3 -15 0 -15 -7 0 -8 10 -9 30 -5 19 4 30 3 30 -4 0 -6
-6 -11 -14 -11 -8 0 -33 -16 -56 -35 -45 -37 -31 -50 18 -16 35 25 132 36 132
16 0 -9 -10 -15 -24 -15 -14 0 -28 -5 -32 -11 -4 -8 14 -9 62 -5 134 13 154
17 154 32 0 8 7 14 15 14 8 0 15 -5 15 -11 0 -6 6 -17 14 -24 12 -12 15 -11
20 8 3 11 0 25 -7 29 -6 4 -8 10 -4 14 3 4 12 2 19 -4 14 -11 116 -10 136 2
13 8 76 18 127 20 21 1 44 14 75 45 l45 44 -32 -7 c-23 -5 -32 -3 -35 7 -2 11
-9 12 -28 5z m-430 -39 c0 -6 -8 -8 -20 -4 -10 3 -29 0 -42 -8 -24 -15 -127
-33 -114 -20 9 9 123 40 154 42 12 0 22 -4 22 -10z"/>
<path d="M9865 9860 c-3 -5 -1 -10 4 -10 6 0 11 5 11 10 0 6 -2 10 -4 10 -3 0
-8 -4 -11 -10z"/>
<path d="M10090 9850 c0 -5 12 -10 28 -9 24 0 25 1 7 9 -27 12 -35 12 -35 0z"/>
<path d="M9853 9809 c-13 -13 -93 -16 -111 -5 -5 3 -26 -10 -45 -29 -19 -19
-44 -35 -55 -35 -30 0 -87 -26 -71 -33 8 -3 1 -6 -16 -6 -22 -1 -26 2 -15 9
26 16 1 24 -39 10 -21 -7 -47 -9 -58 -6 -10 3 -28 0 -39 -9 -18 -13 -16 -14
21 -15 31 -1 36 -3 20 -10 -11 -4 -31 -6 -45 -3 -22 4 -23 3 -7 -7 14 -9 29
-9 60 -1 23 6 75 13 116 16 75 4 111 15 50 15 -26 0 -30 3 -19 10 8 5 25 10
37 10 12 0 48 11 79 25 58 26 94 32 94 16 0 -12 128 -6 160 7 14 6 34 13 45
17 16 5 17 8 5 15 -18 11 -70 1 -92 -18 -14 -11 -18 -12 -18 -2 0 12 -28 39
-40 40 -4 0 -11 -5 -17 -11z"/>
<path d="M8850 9789 c-11 -20 -11 -20 14 -4 30 20 32 25 11 25 -8 0 -19 -9
-25 -21z"/>
<path d="M10094 9803 c9 -9 87 -13 81 -3 -3 5 -24 8 -46 8 -22 0 -38 -2 -35
-5z"/>
<path d="M10235 9790 c11 -5 34 -9 50 -9 23 -1 26 2 15 9 -8 5 -31 9 -50 9
-29 0 -31 -2 -15 -9z"/>
<path d="M10085 9760 c3 -5 11 -10 16 -10 6 0 7 5 4 10 -3 6 -11 10 -16 10 -6
0 -7 -4 -4 -10z"/>
<path d="M10298 9763 c-10 -2 -18 -8 -18 -13 0 -8 13 -5 70 13 19 7 -29 6 -52
0z"/>
<path d="M10386 9758 c3 -5 10 -6 15 -3 13 9 11 12 -6 12 -8 0 -12 -4 -9 -9z"/>
<path d="M10140 9750 c-14 -9 -6 -15 15 -10 6 1 30 6 55 10 l45 8 -50 1 c-27
0 -57 -4 -65 -9z"/>
<path d="M5875 9690 c-3 -5 -3 -15 1 -21 5 -8 9 -8 14 1 4 7 10 -3 14 -25 8
-43 0 -59 -12 -25 l-9 24 -6 -26 c-8 -30 -41 -40 -106 -31 -27 4 -42 2 -38 -3
3 -6 -15 -16 -40 -23 -41 -13 -48 -12 -85 8 -50 26 -53 26 -34 -1 20 -28 20
-39 1 -32 -8 4 -17 -1 -21 -10 -7 -19 -30 -21 -38 -3 -3 6 -4 3 -1 -8 5 -23
-36 -58 -43 -36 -4 13 -32 15 -32 2 0 -13 -41 -1 -69 21 -39 30 -47 20 -13
-15 41 -43 40 -55 -5 -63 -31 -6 -47 -2 -95 24 -60 34 -73 38 -63 21 4 -6 -13
-30 -38 -55 -25 -25 -49 -54 -52 -64 -3 -10 -15 -22 -26 -25 -29 -9 -23 -23
19 -42 l37 -17 -32 -4 c-18 -2 -48 1 -68 7 -47 13 -45 -5 3 -19 20 -7 46 -18
57 -26 17 -13 18 -16 5 -24 -8 -5 -40 -10 -70 -10 -71 0 -55 -19 24 -27 46 -5
56 -9 56 -24 0 -11 -4 -19 -9 -19 -15 0 -22 -30 -11 -48 7 -13 9 -14 10 -3 0
19 41 79 59 86 7 3 19 1 25 -4 6 -5 27 -12 46 -15 26 -6 31 -5 20 3 -16 12 90
8 142 -4 24 -6 26 -10 17 -32 -14 -36 -11 -39 15 -14 21 19 27 21 46 11 15 -8
20 -8 16 -1 -9 15 36 15 51 0 6 -6 9 -18 6 -26 -4 -10 1 -14 18 -12 49 4 89
-1 101 -15 9 -10 20 -11 37 -4 16 5 28 5 35 -2 5 -5 17 -10 25 -10 11 0 10 4
-4 20 -18 19 -17 20 3 20 12 0 26 -8 32 -17 11 -17 11 -17 6 0 -7 21 -4 21 45
-2 33 -16 46 -18 71 -9 20 7 32 7 37 1 18 -29 171 -35 171 -7 0 9 12 14 36 14
27 0 35 -4 31 -14 -3 -8 1 -17 9 -20 8 -3 17 1 20 9 9 22 33 18 54 -7 l19 -23
-6 23 c-3 12 -1 22 5 22 6 0 27 33 48 74 34 70 36 79 32 150 -3 65 -1 76 13
76 9 0 24 -9 33 -19 22 -25 56 -34 56 -15 0 8 -5 14 -10 14 -6 0 -8 10 -5 23
4 17 -3 28 -29 47 -19 14 -34 27 -34 30 2 25 -4 40 -12 35 -6 -4 -27 3 -46 14
-19 12 -41 21 -49 21 -8 0 -20 9 -28 20 -8 12 -18 20 -23 19 -5 -1 -20 3 -34
8 -14 6 -37 16 -52 22 -19 7 -28 18 -29 33 l0 23 -12 -23 c-9 -20 -16 -23 -46
-18 -20 3 -55 9 -78 12 -37 6 -44 11 -57 45 -20 49 -20 49 1 49 22 0 14 6 -19
14 -15 3 -30 2 -33 -4z m150 -239 c7 -12 -12 -24 -25 -16 -11 7 -4 25 10 25 5
0 11 -4 15 -9z m-769 -22 c19 -11 34 -24 34 -28 0 -12 -68 -41 -95 -41 -21 0
-23 -3 -16 -22 7 -18 3 -25 -17 -35 -24 -13 -62 -9 -62 5 0 7 20 38 45 70 14
19 69 72 74 72 2 0 19 -9 37 -21z m827 -3 c3 -8 0 -17 -8 -19 -15 -7 -25 1
-25 20 0 17 26 17 33 -1z m-449 -75 c-2 -28 3 -88 10 -135 l13 -86 -26 7 c-14
3 -61 24 -103 45 -75 38 -78 41 -78 74 0 25 -3 33 -12 28 -7 -4 -4 2 6 14 11
12 24 22 31 22 6 0 22 11 35 25 13 14 31 25 40 25 9 0 25 7 36 15 38 28 50 19
48 -34z m630 -33 c18 -35 21 -68 6 -68 -5 0 -9 -20 -8 -44 1 -50 -6 -66 -29
-66 -11 0 -14 7 -11 24 3 16 0 27 -9 30 -11 5 -11 10 2 30 9 14 15 35 12 48
-4 20 -4 20 -6 -4 0 -17 -7 -28 -15 -28 -16 0 -31 -34 -21 -50 4 -6 11 -8 16
-5 14 9 10 -18 -6 -39 -15 -19 -15 -19 -15 3 0 20 -4 22 -25 17 -25 -6 -25 -5
-25 55 0 62 7 76 47 97 28 16 33 15 33 -3 0 -8 5 -15 10 -15 6 0 10 11 10 25
0 34 15 31 34 -7z m-444 -18 c3 -1 -6 -6 -20 -10 -24 -8 -24 -8 -2 -9 17 -1
22 -7 22 -26 0 -14 -6 -25 -12 -26 -7 0 -4 -5 8 -10 14 -8 20 -20 20 -42 -1
-18 3 -44 7 -59 4 -17 3 -28 -3 -28 -5 0 -10 7 -10 15 0 8 -6 12 -15 9 -8 -3
-31 0 -51 6 -41 14 -31 29 21 31 21 1 24 3 10 6 -11 3 -34 19 -50 37 -17 17
-38 30 -48 28 -25 -5 -21 15 5 24 13 4 29 14 36 23 12 14 12 12 7 -14 -4 -20
-3 -27 4 -20 5 6 12 24 15 40 2 17 5 30 5 31 1 1 45 -4 51 -6z m268 -24 c3
-20 0 -27 -10 -24 -7 3 -14 17 -16 32 -3 20 0 27 10 24 7 -3 14 -17 16 -32z
m-58 10 c0 -8 -4 -18 -10 -21 -5 -3 -10 -4 -10 -1 0 2 -3 11 -6 20 -4 11 -1
16 10 16 9 0 16 -6 16 -14z m-330 -210 c0 -11 -19 -15 -25 -6 -3 5 1 10 9 10
9 0 16 -2 16 -4z"/>
<path d="M5758 9683 c7 -3 16 -2 19 1 4 3 -2 6 -13 5 -11 0 -14 -3 -6 -6z"/>
<path d="M12161 9683 c0 -4 4 -17 9 -28 8 -19 9 -19 9 2 1 12 -3 25 -9 28 -5
3 -10 3 -9 -2z"/>
<path d="M12227 9676 c-4 -10 -5 -21 -2 -24 9 -9 17 6 13 25 -3 17 -4 17 -11
-1z"/>
<path d="M12093 9644 c-15 -49 -17 -91 -3 -99 13 -8 22 33 18 91 l-3 49 -12
-41z"/>
<path d="M5543 9660 c-51 -11 -93 -32 -75 -38 7 -2 19 1 26 7 11 9 18 8 29 -4
21 -21 30 -19 22 5 -5 16 -2 20 17 21 13 0 32 4 43 9 l20 9 -20 -1 c-11 0 -39
-4 -62 -8z"/>
<path d="M6280 9620 c0 -5 5 -10 11 -10 5 0 7 5 4 10 -3 6 -8 10 -11 10 -2 0
-4 -4 -4 -10z"/>
<path d="M5414 9605 c-18 -13 -18 -14 4 -8 12 3 25 9 28 14 8 14 -10 11 -32
-6z"/>
<path d="M6328 9612 c-21 -4 -24 -22 -4 -22 30 0 166 -75 166 -91 0 -5 6 -9
14 -9 8 0 17 -7 20 -16 3 -8 10 -13 14 -10 13 8 78 -50 128 -115 25 -33 48
-58 50 -56 6 6 -18 57 -26 57 -9 0 -22 39 -21 60 1 16 -178 136 -238 159 -20
8 -47 22 -61 31 -14 9 -33 15 -42 12z"/>
<path d="M5336 9564 c-11 -8 -16 -14 -10 -14 13 0 39 18 34 24 -3 2 -14 -2
-24 -10z"/>
<path d="M5340 9450 c0 -5 5 -10 11 -10 5 0 7 5 4 10 -3 6 -8 10 -11 10 -2 0
-4 -4 -4 -10z"/>
<path d="M12442 9410 c0 -19 2 -27 5 -17 2 9 2 25 0 35 -3 9 -5 1 -5 -18z"/>
<path d="M11920 9375 c0 -14 5 -25 10 -25 6 0 10 11 10 25 0 14 -4 25 -10 25
-5 0 -10 -11 -10 -25z"/>
<path d="M6706 9375 c3 -8 10 -15 15 -15 5 0 9 -6 9 -12 1 -17 35 -58 49 -58
19 0 12 17 -9 23 -11 3 -20 13 -20 24 0 10 -12 26 -25 36 -20 14 -24 15 -19 2z"/>
<path d="M12459 9283 c-14 -3 -15 -11 -7 -46 6 -23 12 -62 15 -86 7 -58 23
-33 22 34 -1 28 -3 42 -6 32 -7 -27 -23 -9 -22 26 0 27 2 29 9 12 8 -18 9 -17
9 8 1 15 0 26 -1 26 -2 -1 -10 -3 -19 -6z"/>
<path d="M6730 9270 c0 -5 5 -10 11 -10 5 0 7 5 4 10 -3 6 -8 10 -11 10 -2 0
-4 -4 -4 -10z"/>
<path d="M11932 9255 c0 -16 2 -22 5 -12 2 9 2 23 0 30 -3 6 -5 -1 -5 -18z"/>
<path d="M6497 9249 c12 -12 25 -20 28 -17 3 3 -7 13 -22 23 l-28 17 22 -23z"/>
<path d="M12402 9240 c0 -14 2 -19 5 -12 2 6 2 18 0 25 -3 6 -5 1 -5 -13z"/>
<path d="M9230 9238 c0 -4 14 -8 30 -8 17 0 30 4 30 8 0 5 -13 9 -30 9 -16 0
-30 -4 -30 -9z"/>
<path d="M9354 9234 c5 -14 4 -15 -8 -4 -9 6 -21 10 -28 7 -21 -8 44 -29 69
-22 35 8 29 35 -8 35 -25 0 -30 -3 -25 -16z m36 -4 c0 -5 -4 -10 -10 -10 -5 0
-10 5 -10 10 0 6 5 10 10 10 6 0 10 -4 10 -10z"/>
<path d="M9134 9225 c-17 -13 -17 -14 -2 -15 9 0 20 5 23 11 11 17 0 20 -21 4z"/>
<path d="M9055 9208 c-10 -6 -30 -24 -43 -40 -13 -15 -30 -28 -38 -28 -8 0
-14 -7 -14 -15 0 -8 -6 -15 -14 -15 -8 0 -17 -7 -20 -16 -6 -15 -5 -15 16 0
13 9 37 23 53 32 17 8 48 28 70 44 29 20 42 25 48 17 6 -8 7 -5 3 6 -3 10 -6
21 -6 23 0 8 -35 3 -55 -8z"/>
<path d="M9680 9210 c0 -5 5 -10 10 -10 6 0 10 5 10 10 0 6 -4 10 -10 10 -5 0
-10 -4 -10 -10z"/>
<path d="M11931 9204 c0 -11 3 -14 6 -6 3 7 2 16 -1 19 -3 4 -6 -2 -5 -13z"/>
<path d="M9517 9180 c-12 -18 -23 -19 -115 -17 -56 2 -102 0 -102 -3 0 -4 -19
-14 -42 -23 -33 -13 -44 -14 -50 -4 -6 9 -11 8 -19 -5 -12 -21 -39 -24 -40 -5
0 6 -5 1 -10 -12 -6 -16 -15 -22 -29 -18 -14 3 -31 -7 -58 -37 -22 -24 -47
-46 -56 -49 -31 -12 -6 -26 40 -23 25 1 54 10 66 20 21 18 21 18 16 -28 -3
-25 -2 -46 3 -46 5 0 9 -24 9 -53 0 -42 32 -179 46 -195 7 -9 101 -25 214 -36
102 -10 129 -10 150 1 30 15 56 17 65 3 8 -13 45 -13 45 0 0 7 18 8 48 4 45
-6 52 -4 85 25 20 18 39 46 43 64 3 18 13 41 20 52 8 11 14 34 14 51 0 53 20
58 76 21 28 -17 56 -38 64 -45 8 -7 30 -22 48 -32 17 -11 32 -24 32 -29 0 -5
-17 -20 -37 -32 -21 -13 -41 -27 -44 -32 -4 -5 -9 -3 -12 4 -4 10 -6 10 -6 2
-1 -7 -12 -13 -25 -13 -14 0 -28 -4 -31 -10 -3 -5 -17 -10 -30 -10 -13 0 -27
-5 -30 -11 -4 -6 -22 -8 -45 -4 -27 5 -41 2 -47 -7 -15 -24 -62 -39 -85 -27
-14 8 -27 8 -42 1 -11 -6 -33 -13 -48 -16 -17 -4 -28 -13 -28 -22 0 -14 2 -15
17 -3 13 11 17 11 20 2 3 -7 14 -13 24 -13 12 0 17 4 13 11 -13 22 20 29 42 8
14 -13 24 -17 29 -10 3 6 17 8 31 5 13 -3 30 -1 37 5 9 7 24 8 48 1 41 -12 39
-12 39 0 0 6 -6 10 -14 10 -7 0 -20 8 -27 18 -12 15 -12 16 1 6 8 -7 33 -10
55 -9 22 2 44 0 50 -4 22 -17 59 -19 86 -5 15 7 36 13 46 12 10 0 35 0 55 0
31 2 36 5 31 20 -5 14 -3 15 7 5 8 -8 29 -10 54 -7 27 4 55 0 81 -10 28 -12
40 -13 46 -5 4 7 18 9 39 4 22 -5 30 -4 26 3 -4 6 10 22 31 36 42 29 41 31 -6
15 -35 -13 -94 -3 -71 11 11 7 8 15 -13 44 -15 19 -27 38 -27 43 -1 14 -72 54
-87 49 -11 -4 -11 -1 -2 15 10 19 8 20 -11 14 -15 -5 -28 0 -46 20 -13 14 -24
30 -24 35 0 4 -13 13 -29 18 -16 6 -42 24 -57 41 -15 18 -37 31 -50 31 -13 0
-32 9 -42 20 -11 12 -26 18 -34 15 -9 -4 -22 1 -31 9 -23 23 -40 20 -32 -5 6
-19 5 -20 -15 -9 -16 9 -19 14 -10 25 8 9 8 15 0 20 -5 3 -13 -1 -16 -9 -5
-14 -9 -14 -35 0 -16 8 -34 12 -39 9 -6 -3 -10 -1 -10 4 0 6 3 11 8 11 8 0 52
62 52 75 0 5 -13 -3 -28 -18 -18 -18 -35 -25 -45 -21 -9 3 -14 10 -11 16 3 5
-3 4 -13 -3 -12 -7 -31 -9 -47 -5 -24 6 -26 9 -14 23 12 15 10 16 -12 9 -66
-18 -90 -19 -96 -1 -4 10 -1 21 7 26 11 7 11 9 -3 9 -9 0 -23 -9 -31 -20z
m193 -226 c0 4 5 4 10 1 6 -4 3 -16 -10 -32 -15 -19 -20 -41 -20 -85 0 -52 3
-61 20 -65 19 -5 25 -26 7 -24 -4 1 -16 1 -26 1 -31 0 -47 23 -44 66 11 146
24 183 51 147 6 -9 12 -13 12 -9z m-69 -16 c1 -7 3 -24 4 -37 2 -16 -4 -25
-16 -28 -23 -6 -25 -45 -5 -63 8 -6 12 -18 9 -27 -5 -13 -7 -13 -15 2 -7 12
-17 15 -34 11 -23 -6 -24 -5 -24 57 0 62 1 64 33 80 40 20 47 20 48 5z m-371
-90 c0 -51 -2 -58 -19 -58 -20 0 -26 10 -36 71 -5 28 -2 42 12 58 17 20 19 20
30 4 7 -9 13 -43 13 -75z m250 51 c0 -21 -4 -27 -15 -23 -8 4 -15 19 -15 35 0
21 4 27 15 23 8 -4 15 -19 15 -35z m-236 -125 c9 -3 16 -16 16 -28 0 -15 9
-26 28 -34 21 -9 22 -10 3 -6 -14 4 -27 1 -33 -7 -7 -11 -11 -11 -15 -1 -2 6
-13 12 -23 12 -14 0 -18 7 -17 35 1 35 10 41 41 29z m736 -104 c0 -5 -4 -10
-10 -10 -5 0 -10 5 -10 10 0 6 5 10 10 10 6 0 10 -4 10 -10z m-60 -20 c0 -5
-2 -10 -4 -10 -3 0 -8 5 -11 10 -3 6 -1 10 4 10 6 0 11 -4 11 -10z m70 -24 c0
-3 -4 -8 -10 -11 -5 -3 -10 -1 -10 4 0 6 5 11 10 11 6 0 10 -2 10 -4z"/>
<path d="M9195 9180 c-8 -13 5 -13 25 0 13 8 13 10 -2 10 -9 0 -20 -4 -23 -10z"/>
<path d="M8935 9163 c-27 -7 -76 -54 -68 -66 4 -6 11 -4 17 5 6 9 29 27 50 42
39 26 39 28 1 19z"/>
<path d="M9145 9160 c-3 -5 -1 -10 4 -10 6 0 11 5 11 10 0 6 -2 10 -4 10 -3 0
-8 -4 -11 -10z"/>
<path d="M11952 9140 c0 -19 2 -27 5 -17 2 9 2 25 0 35 -3 9 -5 1 -5 -18z"/>
<path d="M6620 9110 c0 -5 5 -10 11 -10 5 0 7 5 4 10 -3 6 -8 10 -11 10 -2 0
-4 -4 -4 -10z"/>
<path d="M6705 9101 c-3 -5 -1 -12 5 -16 5 -3 10 1 10 9 0 18 -6 21 -15 7z"/>
<path d="M12300 9095 c0 -8 5 -15 10 -15 6 0 10 7 10 15 0 8 -4 15 -10 15 -5
0 -10 -7 -10 -15z"/>
<path d="M11940 9084 c0 -8 5 -12 10 -9 6 3 10 10 10 16 0 5 -4 9 -10 9 -5 0
-10 -7 -10 -16z"/>
<path d="M6750 9051 c8 -16 8 -21 -1 -21 -8 0 -8 -4 1 -15 7 -8 20 -15 29 -15
9 0 33 -14 53 -30 50 -41 61 -19 12 25 -20 19 -40 32 -45 30 -4 -3 -9 2 -12 9
-3 8 -15 20 -27 26 -20 11 -21 10 -10 -9z"/>
<path d="M8762 9048 c-7 -7 -12 -16 -12 -20 0 -15 15 -8 28 12 13 22 3 27 -16
8z"/>
<path d="M11948 9015 c-16 -67 -19 -101 -10 -125 10 -25 10 -24 16 10 4 19 6
60 4 90 -3 47 -4 51 -10 25z"/>
<path d="M5773 9018 c-13 -6 -23 -17 -23 -25 0 -11 5 -11 30 2 47 24 40 46 -7
23z"/>
<path d="M5948 8993 c-16 -2 -28 -11 -28 -19 0 -15 12 -17 47 -8 23 6 41 35
20 33 -7 -1 -24 -4 -39 -6z"/>
<path d="M6318 8983 c6 -2 18 -2 25 0 6 3 1 5 -13 5 -14 0 -19 -2 -12 -5z"/>
<path d="M12101 8974 c0 -11 3 -14 6 -6 3 7 2 16 -1 19 -3 4 -6 -2 -5 -13z"/>
<path d="M6158 8973 c6 -2 18 -2 25 0 6 3 1 5 -13 5 -14 0 -19 -2 -12 -5z"/>
<path d="M3230 8950 c-12 -8 -11 -10 8 -10 12 0 22 5 22 10 0 13 -11 13 -30 0z"/>
<path d="M12070 8940 c0 -19 3 -21 12 -12 9 9 9 15 0 24 -9 9 -12 7 -12 -12z"/>
<path d="M12426 8774 c-3 -9 1 -30 9 -47 9 -19 15 -58 15 -104 0 -40 3 -73 8
-73 17 0 52 -124 52 -188 0 -20 -3 -22 -14 -12 -8 6 -17 26 -19 43 -2 18 -5 5
-5 -29 -1 -33 2 -64 7 -70 5 -5 11 -29 14 -54 8 -70 40 -176 60 -197 10 -11
17 -35 17 -57 0 -26 4 -36 13 -33 12 4 14 91 3 167 -3 19 -10 73 -15 120 -4
47 -11 92 -15 100 -3 8 -12 58 -20 110 -8 52 -20 122 -26 155 -6 33 -10 72 -7
87 3 26 -14 44 -33 33 -4 -3 -11 11 -14 30 -7 37 -20 45 -30 19z m104 -484
c12 -22 5 -60 -11 -60 -5 0 -9 18 -9 40 0 45 4 49 20 20z"/>
<path d="M12095 8738 c-4 -9 -2 -25 3 -35 10 -17 11 -17 17 -1 4 9 2 25 -3 35
-10 17 -11 17 -17 1z"/>
<path d="M3150 8704 c0 -14 4 -23 10 -19 6 3 10 15 10 26 0 10 -4 19 -10 19
-5 0 -10 -12 -10 -26z"/>
<path d="M9162 8632 c-21 -14 32 -32 90 -32 41 0 49 3 40 12 -7 7 -27 13 -45
14 -17 0 -41 4 -52 7 -11 4 -26 3 -33 -1z"/>
<path d="M11931 8134 c0 -11 3 -14 6 -6 3 7 2 16 -1 19 -3 4 -6 -2 -5 -13z"/>
<path d="M11931 7903 c0 -5 4 -17 9 -28 8 -18 9 -17 9 8 1 15 -3 27 -9 27 -5
0 -10 -3 -9 -7z"/>
<path d="M12615 7858 c-11 -6 -21 -12 -23 -13 -3 -2 2 -16 33 -90 7 -16 16
-40 20 -53 7 -25 28 -25 33 0 2 9 -5 18 -15 20 -18 3 -22 24 -24 116 0 17 -1
32 -2 32 -1 0 -11 -6 -22 -12z"/>
<path d="M11950 7722 c0 -26 4 -41 10 -37 13 8 13 45 0 65 -7 11 -10 3 -10
-28z"/>
<path d="M12534 7678 c3 -13 6 -27 7 -33 0 -5 4 -1 8 10 9 23 4 45 -11 45 -6
0 -8 -10 -4 -22z"/>
<path d="M12550 7603 c0 -46 14 -93 26 -93 17 0 18 35 3 79 -12 34 -29 42 -29
14z"/>
<path d="M2995 7238 c-16 -24 -7 -35 20 -24 16 6 21 46 6 46 -6 0 -17 -10 -26
-22z"/>
<path d="M2952 7098 c2 -6 10 -14 16 -16 7 -2 10 2 6 12 -7 18 -28 22 -22 4z"/>
<path d="M2921 6774 c0 -11 3 -14 6 -6 3 7 2 16 -1 19 -3 4 -6 -2 -5 -13z"/>
<path d="M5702 6033 c-14 -5 25 -53 43 -53 6 0 22 -13 37 -30 18 -21 35 -30
57 -30 24 0 31 -4 31 -20 0 -10 9 -24 20 -30 11 -6 20 -17 20 -25 0 -20 52
-94 66 -95 21 0 64 -41 64 -61 0 -12 7 -19 20 -19 10 0 38 -18 60 -40 22 -22
47 -40 55 -40 8 0 15 -4 15 -9 0 -5 17 -20 38 -32 20 -13 53 -35 72 -50 19
-15 48 -31 63 -35 18 -4 26 -11 23 -20 -3 -8 -2 -13 2 -12 16 4 58 -16 74 -35
14 -18 19 -19 32 -8 9 7 16 20 16 28 0 7 10 18 23 23 19 8 20 9 3 9 -11 1 -28
8 -38 18 -15 13 -18 14 -18 2 0 -8 5 -20 12 -27 23 -23 -13 -13 -58 16 -41 25
-58 52 -33 52 6 0 8 8 4 19 -6 21 14 34 35 21 11 -7 11 -11 1 -24 -9 -11 -10
-16 -2 -16 6 0 11 6 11 13 0 8 4 7 10 -3 13 -19 4 24 -20 95 -17 49 -18 50
-53 47 -28 -3 -39 1 -51 20 -26 39 -66 161 -66 198 0 20 -5 41 -11 47 -7 7 -8
19 -4 30 7 16 9 15 15 -7 l8 -25 1 27 c1 37 -30 42 -195 28 -156 -14 -216 -11
-265 14 -52 27 -103 44 -117 39z m223 -91 c-3 -3 -11 0 -18 7 -9 10 -8 11 6 5
10 -3 15 -9 12 -12z m332 -64 c-3 -8 -6 -5 -6 6 -1 11 2 17 5 13 3 -3 4 -12 1
-19z"/>
<path d="M8962 5721 c7 -11 15 -18 19 -15 4 2 12 -3 19 -11 11 -13 10 -14 -4
-9 -9 3 -16 2 -16 -4 0 -13 62 -22 75 -11 5 6 3 9 -7 9 -9 0 -20 10 -24 23 -8
27 -22 37 -52 37 -19 0 -21 -2 -10 -19z"/>
<path d="M9316 5694 c-9 -8 -14 -19 -11 -24 3 -5 1 -11 -5 -15 -12 -7 -14 -25
-2 -25 4 0 20 11 35 24 16 13 38 31 50 40 21 15 21 15 -15 15 -21 1 -43 -6
-52 -15z"/>
<path d="M9145 5671 c4 -14 -1 -20 -22 -26 -15 -4 -22 -10 -15 -12 6 -3 10 -8
7 -13 -3 -5 18 3 45 16 30 15 48 29 44 35 -4 8 -9 7 -15 -2 -7 -11 -9 -10 -9
4 0 10 -8 17 -21 17 -15 0 -19 -5 -14 -19z"/>
<path d="M9240 5660 c-13 -9 -13 -10 0 -10 8 0 22 5 30 10 13 9 13 10 0 10 -8
0 -22 -5 -30 -10z"/>
<path d="M2821 5604 c0 -11 3 -14 6 -6 3 7 2 16 -1 19 -3 4 -6 -2 -5 -13z"/>
<path d="M8919 5584 c-7 -9 -22 -14 -36 -11 -13 2 -28 -2 -34 -9 -6 -7 -31
-16 -55 -20 -35 -5 -50 -14 -75 -45 -35 -44 -84 -75 -94 -59 -3 6 -16 10 -28
10 -19 -1 -18 -3 8 -14 20 -9 36 -10 49 -4 12 7 22 6 29 -1 7 -7 14 -5 24 7
12 16 13 16 7 0 -3 -10 -1 -18 5 -18 6 0 11 -7 11 -16 0 -11 -6 -15 -19 -11
-17 4 -18 1 -11 -24 6 -18 4 -29 -3 -32 -7 -2 -8 -6 -1 -10 6 -3 30 8 55 24
24 17 54 34 65 39 24 9 117 124 108 133 -3 3 -1 21 4 41 12 40 10 43 -9 20z"/>
<path d="M2800 5233 c0 -13 5 -23 10 -23 13 0 13 11 0 30 -8 12 -10 11 -10 -7z"/>
<path d="M2731 4674 c0 -11 3 -14 6 -6 3 7 2 16 -1 19 -3 4 -6 -2 -5 -13z"/>
<path d="M12980 4303 c0 -4 5 -21 12 -39 13 -37 50 -56 39 -20 -12 40 -51 86
-51 59z"/>
<path d="M2404 3287 c-5 -8 -18 -17 -29 -19 -11 -2 -15 -6 -10 -9 6 -4 22 -1
37 5 19 8 24 16 19 25 -7 11 -10 11 -17 -2z"/>
</g>
</svg>
