<svg xmlns="http://www.w3.org/2000/svg" width="116.549" height="96.279" viewBox="0 0 116.549 96.279">
  <path id="calendar" d="M107.414,101.279H11.135A10.135,10.135,0,0,1,1,91.145V15.135A10.135,10.135,0,0,1,11.135,5h96.279a10.135,10.135,0,0,1,10.135,10.135v76.01A10.135,10.135,0,0,1,107.414,101.279Zm5.067-86.145a5.069,5.069,0,0,0-5.067-5.067H11.135a5.069,5.069,0,0,0-5.067,5.067v15.2H112.481Zm0,20.269H6.067V91.145a5.069,5.069,0,0,0,5.067,5.067h96.279a5.069,5.069,0,0,0,5.067-5.067ZM102.347,70.875H97.279a2.533,2.533,0,0,1-2.534-2.534V63.274a2.535,2.535,0,0,1,2.534-2.534h5.067a2.533,2.533,0,0,1,2.534,2.534v5.067A2.531,2.531,0,0,1,102.347,70.875Zm0-17.736H97.279a2.533,2.533,0,0,1-2.534-2.534V45.539A2.533,2.533,0,0,1,97.279,43h5.067a2.531,2.531,0,0,1,2.534,2.534v5.067A2.531,2.531,0,0,1,102.347,53.14ZM82.077,70.875H77.01a2.533,2.533,0,0,1-2.534-2.534V63.274a2.535,2.535,0,0,1,2.534-2.534h5.067a2.533,2.533,0,0,1,2.534,2.534v5.067A2.531,2.531,0,0,1,82.077,70.875Zm0-17.736H77.01a2.533,2.533,0,0,1-2.534-2.534V45.539A2.533,2.533,0,0,1,77.01,43h5.067a2.531,2.531,0,0,1,2.534,2.534v5.067A2.531,2.531,0,0,1,82.077,53.14ZM61.808,70.875H56.741a2.531,2.531,0,0,1-2.534-2.534V63.274a2.533,2.533,0,0,1,2.534-2.534h5.067a2.533,2.533,0,0,1,2.534,2.534v5.067A2.531,2.531,0,0,1,61.808,70.875Zm0-17.736H56.741a2.531,2.531,0,0,1-2.534-2.534V45.539A2.531,2.531,0,0,1,56.741,43h5.067a2.531,2.531,0,0,1,2.534,2.534v5.067A2.531,2.531,0,0,1,61.808,53.14ZM41.539,88.611H36.471a2.531,2.531,0,0,1-2.534-2.534V81.01a2.531,2.531,0,0,1,2.534-2.534h5.067a2.531,2.531,0,0,1,2.534,2.534v5.067A2.531,2.531,0,0,1,41.539,88.611Zm0-17.736H36.471a2.531,2.531,0,0,1-2.534-2.534V63.274a2.533,2.533,0,0,1,2.534-2.534h5.067a2.533,2.533,0,0,1,2.534,2.534v5.067A2.531,2.531,0,0,1,41.539,70.875Zm0-17.736H36.471a2.531,2.531,0,0,1-2.534-2.534V45.539A2.531,2.531,0,0,1,36.471,43h5.067a2.531,2.531,0,0,1,2.534,2.534v5.067A2.531,2.531,0,0,1,41.539,53.14ZM21.269,88.611H16.2a2.531,2.531,0,0,1-2.534-2.534V81.01A2.531,2.531,0,0,1,16.2,78.476h5.067A2.531,2.531,0,0,1,23.8,81.01v5.067A2.531,2.531,0,0,1,21.269,88.611Zm0-17.736H16.2a2.531,2.531,0,0,1-2.534-2.534V63.274A2.533,2.533,0,0,1,16.2,60.741h5.067A2.533,2.533,0,0,1,23.8,63.274v5.067A2.531,2.531,0,0,1,21.269,70.875Zm35.471,7.6h5.067a2.531,2.531,0,0,1,2.534,2.534v5.067a2.531,2.531,0,0,1-2.534,2.534H56.741a2.531,2.531,0,0,1-2.534-2.534V81.01A2.531,2.531,0,0,1,56.741,78.476Z" transform="translate(-1 -5)" fill="#fff" fill-rule="evenodd"/>
</svg>
