<svg xmlns="http://www.w3.org/2000/svg" width="147.075" height="39.349" viewBox="0 0 147.075 39.349">
  <g id="logo-white" transform="translate(-125 -2770.651)">
    <text id="_24andfive" data-name="24andfive" transform="translate(125 2804)" font-size="23" font-family="Montserrat-Bold, Montserrat" font-weight="700"><tspan x="0" y="0">24andfive</tspan></text>
    <text id="_24andfive-2" data-name="24andfive" transform="translate(125 2804)" font-size="23" font-family="Montserrat-Bold, Montserrat" font-weight="700"><tspan x="0" y="0">24andfive</tspan></text>
    <text id="_24andfive-3" data-name="24andfive" transform="translate(125 2804)" font-size="23" font-family="Montserrat-Bold, Montserrat" font-weight="700"><tspan x="0" y="0">24andfive</tspan></text>
    <text id="_24andfive-4" data-name="24andfive" transform="translate(125 2804)" font-size="23" font-family="Montserrat-Bold, Montserrat" font-weight="700"><tspan x="0" y="0">24andfive</tspan></text>
    <text id="_24andfive-5" data-name="24andfive" transform="translate(125 2804)" font-size="23" font-family="Montserrat-Bold, Montserrat" font-weight="700"><tspan x="0" y="0">24andfive</tspan></text>
    <text id="_24andfive-6" data-name="24andfive" transform="translate(125 2804)" fill="#fff" font-size="23" font-family="Montserrat-Bold, Montserrat" font-weight="700"><tspan x="0" y="0">24andfive</tspan></text>
    <g id="Gruppe_19" data-name="Gruppe 19" transform="translate(-7.249 2705.939)">
      <rect id="Rechteck_1" data-name="Rechteck 1" width="4.842" height="18.763" rx="2.421" transform="translate(273.479 64.711) rotate(45)" fill="#00c2ff"/>
      <path id="Pfad_1" data-name="Pfad 1" d="M2.421,0A2.421,2.421,0,0,1,4.842,2.421V16.342a2.421,2.421,0,1,1-4.842,0V2.421A2.421,2.421,0,0,1,2.421,0Z" transform="translate(275.9 72.369) rotate(45)" fill="#00cc80"/>
    </g>
    <g id="Gruppe_20" data-name="Gruppe 20" transform="translate(-7.249 2705.939)">
      <path id="Pfad_1-2" data-name="Pfad 1" d="M2.421,0A2.421,2.421,0,0,1,4.842,2.421V16.342a2.421,2.421,0,1,1-4.842,0V2.421A2.421,2.421,0,0,1,2.421,0Z" transform="translate(275.9 72.369) rotate(45)" fill="#00cc80"/>
    </g>
    <g id="Gruppe_21" data-name="Gruppe 21" transform="translate(-7.249 2705.939)">
      <path id="Pfad_1-3" data-name="Pfad 1" d="M2.421,0A2.421,2.421,0,0,1,4.842,2.421V16.342a2.421,2.421,0,1,1-4.842,0V2.421A2.421,2.421,0,0,1,2.421,0Z" transform="translate(275.9 72.369) rotate(45)" fill="#00cc80"/>
    </g>
    <g id="Gruppe_22" data-name="Gruppe 22" transform="translate(-7.249 2705.939)">
      <path id="Pfad_1-4" data-name="Pfad 1" d="M2.421,0A2.421,2.421,0,0,1,4.842,2.421V16.342a2.421,2.421,0,1,1-4.842,0V2.421A2.421,2.421,0,0,1,2.421,0Z" transform="translate(275.9 72.369) rotate(45)" fill="#00cc80"/>
    </g>
    <g id="Gruppe_23" data-name="Gruppe 23" transform="translate(-7.249 2705.939)">
      <path id="Pfad_1-5" data-name="Pfad 1" d="M2.421,0A2.421,2.421,0,0,1,4.842,2.421V16.342a2.421,2.421,0,1,1-4.842,0V2.421A2.421,2.421,0,0,1,2.421,0Z" transform="translate(275.9 72.369) rotate(45)" fill="#00cc80"/>
    </g>
    <g id="Gruppe_24" data-name="Gruppe 24" transform="translate(-7.249 2705.939)">
      <path id="Pfad_1-6" data-name="Pfad 1" d="M2.421,0A2.421,2.421,0,0,1,4.842,2.421V16.342a2.421,2.421,0,1,1-4.842,0V2.421A2.421,2.421,0,0,1,2.421,0Z" transform="translate(275.9 72.369) rotate(45)" fill="#00cc80"/>
    </g>
  </g>
</svg>
