<svg xmlns="http://www.w3.org/2000/svg" width="86.853" height="97.33" viewBox="0 0 86.853 97.33">
  <g id="PayPal" transform="translate(-4.563 -2)">
    <path id="Pfad_15" data-name="Pfad 15" d="M81.506,27.126A24.345,24.345,0,0,0,57.2,3H21.815a3.666,3.666,0,0,0-3.666,3.08L5.61,84.726a3.726,3.726,0,0,0,3.63,4.253H24.382l-.807,5.1a3.666,3.666,0,0,0,3.666,4.253H44.291a3.666,3.666,0,0,0,3.666-3.043l3.666-22.4H63.173A27.352,27.352,0,0,0,90.415,45.568V44.541a21.522,21.522,0,0,0-8.91-17.416ZM24.932,10.333H57.2A17.012,17.012,0,0,1,73.733,23.569a20.826,20.826,0,0,0-4.84-.55H38.315a3.666,3.666,0,0,0-3.666,3.08L32.485,39.665a3.713,3.713,0,1,0,7.333,1.173L41.5,30.279H68.966a14.189,14.189,0,0,1,5.133.99A23.722,23.722,0,0,1,50.634,52.131H33.622a3.666,3.666,0,0,0-3.666,3.043L25.482,81.646H13.529Zm58.15,35.235A20.019,20.019,0,0,1,63.173,65.55H48.507a3.666,3.666,0,0,0-3.666,3.043L41.174,91H31.495l.807-5.1h0l4.4-26.362H50.561A31.018,31.018,0,0,0,80.479,36.365a14.006,14.006,0,0,1,2.6,8.176Z" fill="#fff" stroke="#00c2ff" stroke-linecap="round" stroke-width="2"/>
  </g>
</svg>
