<?xml version="1.0" standalone="no"?>
<!DOCTYPE svg PUBLIC "-//W3C//DTD SVG 20010904//EN"
 "http://www.w3.org/TR/2001/REC-SVG-20010904/DTD/svg10.dtd">
<svg version="1.0" xmlns="http://www.w3.org/2000/svg"
 width="455.000000pt" height="455.000000pt" viewBox="0 0 455.000000 455.000000"
 preserveAspectRatio="xMidYMid meet">
<metadata>
Created by potrace 1.11, written by Peter Selinger 2001-2013
</metadata>
<g transform="translate(0.000000,455.000000) scale(0.100000,-0.100000)"
fill="#000000" stroke="none">
<path d="M1837 3723 l-429 -256 -31 16 c-18 9 -55 29 -82 45 l-50 30 -227
-135 -227 -135 -30 21 c-16 12 -36 21 -45 21 -24 0 -19 -26 10 -47 l25 -19
-160 -94 -161 -95 0 -517 0 -518 225 -150 225 -150 0 -168 0 -169 698 -465
697 -465 681 455 c625 416 684 453 704 442 32 -17 46 7 20 35 -19 21 -20 44
-22 889 l-3 867 -680 406 c-374 223 -687 407 -695 409 -8 2 -208 -112 -443
-253z m-1274 -947 c17 -13 25 -76 10 -76 -22 1 -43 30 -43 59 0 34 6 37 33 17z
m2887 -60 c0 -50 -3 -57 -32 -79 -59 -43 -58 -43 -58 21 0 57 1 60 38 85 20
14 40 26 45 26 4 1 7 -24 7 -53z m-2887 -50 c17 -13 25 -76 10 -76 -22 1 -43
30 -43 59 0 34 6 37 33 17z m543 -13 l44 -28 0 -63 0 -64 -47 34 c-47 33 -48
36 -51 91 -2 31 0 57 4 57 4 0 26 -12 50 -27z m2164 -50 l0 -58 -166 -110
c-92 -60 -179 -118 -195 -128 l-29 -19 0 60 0 60 193 126 c105 69 193 126 195
126 1 0 2 -26 2 -57z m-2707 -47 c17 -13 25 -76 10 -76 -22 1 -43 30 -43 59 0
34 6 37 33 17z m543 -92 l44 -26 0 -59 c0 -32 -3 -59 -6 -59 -3 0 -25 14 -50
30 -43 30 -44 32 -44 85 0 30 3 55 6 55 3 0 25 -12 50 -26z m-543 -18 c17 -13
25 -76 10 -76 -22 1 -43 30 -43 59 0 34 6 37 33 17z m17 -153 c0 -18 -3 -33
-7 -33 -22 1 -43 30 -43 58 0 30 1 31 25 20 19 -9 25 -19 25 -45z m549 -32
c19 -15 22 -25 19 -74 l-3 -56 -47 29 -48 30 0 61 0 60 28 -17 c16 -9 38 -24
51 -33z m756 -92 l165 -101 0 -60 c0 -60 0 -60 -22 -46 -13 8 -89 54 -170 104
l-148 89 0 58 c0 31 2 57 5 57 2 0 79 -45 170 -101z m-1305 9 l0 -39 -25 18
c-17 13 -24 28 -25 50 0 31 1 32 25 21 20 -9 25 -18 25 -50z m526 -88 c44 -31
44 -31 44 -92 l0 -60 -25 16 c-14 9 -36 23 -50 32 -22 14 -25 23 -25 75 0 33
3 59 6 59 3 0 25 -14 50 -30z m942 -269 l3 -62 -158 97 c-87 53 -164 101 -170
106 -8 6 -13 34 -13 68 l0 58 168 -102 167 -103 3 -62z m-942 79 c44 -31 44
-31 44 -91 0 -66 1 -66 -62 -16 -36 27 -38 32 -38 83 0 30 3 54 6 54 3 0 25
-14 50 -30z m806 -122 l137 -83 1 -57 c0 -32 -3 -58 -7 -58 -5 0 -80 45 -168
99 l-160 99 -3 62 -3 63 33 -22 c18 -11 95 -58 170 -103z m-806 -65 l44 -28 0
-63 0 -64 -47 34 c-47 33 -48 36 -51 91 -2 31 0 57 4 57 4 0 26 -12 50 -27z
m797 -118 l147 -90 0 -58 c0 -32 -4 -57 -9 -55 -4 2 -81 48 -170 102 l-161 99
0 59 c0 69 -24 76 193 -57z m-21 -173 l163 -98 3 -64 3 -63 -23 15 c-13 8 -89
54 -170 104 l-148 89 0 58 c0 31 2 57 4 57 3 0 78 -44 168 -98z m168 -349 l0
-63 -157 96 c-87 53 -164 101 -170 106 -8 6 -13 34 -13 68 l0 58 170 -102 169
-101 1 -62z"/>
<path d="M260 3595 c0 -19 118 -97 140 -93 28 6 15 23 -50 66 -69 45 -90 51
-90 27z"/>
<path d="M480 3455 c0 -16 113 -95 137 -95 32 0 8 34 -49 70 -68 43 -88 49
-88 25z"/>
<path d="M3767 1334 c-16 -17 -3 -33 59 -72 72 -46 79 -49 88 -27 3 10 -14 28
-54 55 -68 46 -83 53 -93 44z"/>
<path d="M3980 1183 c0 -11 27 -36 66 -61 59 -39 68 -42 82 -29 13 14 7 20
-56 61 -77 50 -92 55 -92 29z"/>
<path d="M4200 1042 c0 -10 14 -26 30 -35 28 -17 31 -17 37 -1 4 11 -2 23 -18
35 -31 24 -49 24 -49 1z"/>
</g>
</svg>
